<svg width="21" height="21" viewBox="0 0 21 21" fill="none" xmlns="http://www.w3.org/2000/svg">
<path d="M20.3646 9.5536L16.4909 7.34204C16.3124 7.23902 16.0995 7.23902 15.9209 7.34204C15.7423 7.44506 15.6393 7.63052 15.6393 7.83656V9.52614H6.38792C6.07198 9.52614 5.81787 9.78023 5.81787 10.0962C5.81787 10.4121 6.07198 10.6662 6.38792 10.6662H15.6393V12.2596C15.6393 12.4657 15.7492 12.6511 15.9209 12.7541C16.0102 12.8091 16.1063 12.8297 16.2093 12.8297C16.3055 12.8297 16.4016 12.8022 16.4909 12.7541L20.3646 10.5426C20.5431 10.4396 20.653 10.2541 20.653 10.0481C20.653 9.84204 20.5363 9.65662 20.3646 9.5536Z" fill="white"/>
<path d="M11.1882 20.1168H2.06729C0.906579 20.1168 0 18.7981 0 17.1223V2.99454C0 1.31184 0.906579 0 2.06729 0H11.1882C12.3489 0 13.2555 1.31871 13.2555 2.99454V6.34619C13.2555 6.66212 13.0014 6.91621 12.6854 6.91621C12.3695 6.91621 12.1154 6.66212 12.1154 6.34619V2.99454C12.1154 1.92998 11.6277 1.14013 11.1882 1.14013H2.06729C1.62773 1.14013 1.14011 1.92998 1.14011 2.99454V17.1223C1.14011 18.1868 1.62773 18.9767 2.06729 18.9767H11.1882C11.6277 18.9767 12.1154 18.1868 12.1154 17.1223V13.8874C12.1154 13.5714 12.3695 13.3173 12.6854 13.3173C13.0014 13.3173 13.2555 13.5714 13.2555 13.8874V17.1223C13.2555 18.7981 12.3489 20.1168 11.1882 20.1168Z" fill="white"/>
</svg>
