<svg width="19" height="19" viewBox="0 0 19 19" fill="none" xmlns="http://www.w3.org/2000/svg">
<path d="M9.43683 18.8736C4.23078 18.8736 0 14.636 0 9.43681C0 4.23076 4.23078 0 9.43683 0C14.6429 0 18.8736 4.23763 18.8736 9.43681C18.8736 14.6428 14.636 18.8736 9.43683 18.8736ZM9.43683 1.10576C4.84205 1.10576 1.09891 4.84203 1.09891 9.44368C1.09891 14.0385 4.83518 17.7816 9.43683 17.7816C14.0385 17.7816 17.7747 14.0453 17.7747 9.44368C17.7679 4.84203 14.0316 1.10576 9.43683 1.10576Z" fill="white"/>
<path d="M7.7472 15.1234C7.445 15.1234 7.19775 14.8762 7.19775 14.574V4.44351C7.19775 4.14131 7.445 3.89404 7.7472 3.89404C8.04939 3.89404 8.29666 4.14131 8.29666 4.44351V14.574C8.29666 14.8762 8.04939 15.1234 7.7472 15.1234Z" fill="white"/>
<path d="M10.5842 10.0822H6.51136C6.20916 10.0822 5.96191 9.83493 5.96191 9.53273C5.96191 9.23054 6.20916 8.98329 6.51136 8.98329H10.5842C11.6281 8.98329 12.4798 8.09044 12.4798 6.99154C12.4798 5.89264 11.6281 4.99978 10.5842 4.99978H6.51136C6.20916 4.99978 5.96191 4.75252 5.96191 4.45032C5.96191 4.14812 6.20916 3.90088 6.51136 3.90088H10.5842C12.2394 3.90088 13.5855 5.28825 13.5855 6.99841C13.5855 8.69484 12.2394 10.0822 10.5842 10.0822Z" fill="white"/>
<path d="M8.8946 12.1978H6.51136C6.20916 12.1978 5.96191 11.9505 5.96191 11.6483C5.96191 11.3461 6.20916 11.0989 6.51136 11.0989H8.8946C9.1968 11.0989 9.44404 11.3461 9.44404 11.6483C9.44404 11.9505 9.20366 12.1978 8.8946 12.1978Z" fill="white"/>
</svg>
