<svg width="24" height="30" viewBox="0 0 24 30" fill="none" xmlns="http://www.w3.org/2000/svg">
<path d="M16.7651 30H1.85438C0.831031 30 0 29.0749 0 27.9358V5.61915C0 4.48 0.831031 3.55493 1.85438 3.55493H14.9519L18.6195 7.10234V27.9358C18.6195 29.0749 17.7885 30 16.7651 30ZM1.85438 4.51822C1.30493 4.51822 0.86537 5.01517 0.86537 5.61915V27.9358C0.86537 28.5474 1.3118 29.0367 1.85438 29.0367H16.7651C17.3146 29.0367 17.7541 28.5397 17.7541 27.9358V7.53812L14.6291 4.51059H1.85438V4.51822Z" fill="white"/>
<path d="M14.437 4.32764V6.03255C14.437 6.90411 15.0758 7.61513 15.8587 7.61513H17.8299" fill="white"/>
<path d="M17.8299 8.09651H15.8588C14.8354 8.09651 14.0044 7.17142 14.0044 6.03227V4.32736C14.0044 4.05978 14.1967 3.8457 14.4371 3.8457C14.6775 3.8457 14.8698 4.05978 14.8698 4.32736V6.03227C14.8698 6.64389 15.3162 7.13319 15.8588 7.13319H17.8299C18.0703 7.13319 18.2626 7.34726 18.2626 7.61485C18.2626 7.88244 18.0703 8.09651 17.8299 8.09651Z" fill="white"/>
<path d="M14.7873 10.0458H3.82574C3.58536 10.0458 3.39307 9.83176 3.39307 9.56418C3.39307 9.29659 3.58536 9.08252 3.82574 9.08252H14.7873C15.0277 9.08252 15.22 9.29659 15.22 9.56418C15.22 9.83176 15.0277 10.0458 14.7873 10.0458Z" fill="white"/>
<path d="M14.7873 13.3564H3.82574C3.58536 13.3564 3.39307 13.1423 3.39307 12.8747C3.39307 12.6071 3.58536 12.3931 3.82574 12.3931H14.7873C15.0277 12.3931 15.22 12.6071 15.22 12.8747C15.22 13.1347 15.0277 13.3564 14.7873 13.3564Z" fill="white"/>
<path d="M14.7873 16.6589H3.82574C3.58536 16.6589 3.39307 16.4448 3.39307 16.1772C3.39307 15.9096 3.58536 15.6956 3.82574 15.6956H14.7873C15.0277 15.6956 15.22 15.9096 15.22 16.1772C15.22 16.4448 15.0277 16.6589 14.7873 16.6589Z" fill="white"/>
<path d="M8.4274 26.4528H3.82574C3.58536 26.4528 3.39307 26.2387 3.39307 25.9711C3.39307 25.7036 3.58536 25.4895 3.82574 25.4895H8.4274C8.66778 25.4895 8.86009 25.7036 8.86009 25.9711C8.86009 26.2387 8.66778 26.4528 8.4274 26.4528Z" fill="white"/>
<path d="M21.3877 26.4527H18.1803C17.9399 26.4527 17.7476 26.2386 17.7476 25.9711C17.7476 25.7035 17.9399 25.4894 18.1803 25.4894H21.3877C21.9371 25.4894 22.3767 24.9925 22.3767 24.3885V3.99084L19.2517 0.963314H6.47696C5.92751 0.963314 5.48795 1.46026 5.48795 2.06424V4.02908C5.48795 4.29667 5.29564 4.51074 5.05525 4.51074C4.81487 4.51074 4.62256 4.29667 4.62256 4.02908V2.06424C4.62256 0.92509 5.45361 0 6.47696 0H19.5745L23.2421 3.54743V24.3808C23.2421 25.5276 22.411 26.4527 21.3877 26.4527Z" fill="white"/>
<path d="M19.0591 0.780029V2.48491C19.0591 3.35648 19.6978 4.0675 20.4808 4.0675H22.4519" fill="white"/>
<path d="M22.4588 4.54912H20.4877C19.4643 4.54912 18.6333 3.62403 18.6333 2.48488V0.779997C18.6333 0.512412 18.8256 0.29834 19.066 0.29834C19.3064 0.29834 19.4987 0.512412 19.4987 0.779997V2.48488C19.4987 3.09651 19.9451 3.58581 20.4877 3.58581H22.4588C22.6992 3.58581 22.8915 3.79988 22.8915 4.06746C22.8915 4.33505 22.6992 4.54912 22.4588 4.54912Z" fill="white"/>
<path d="M19.4164 6.49869H16.8409C16.6005 6.49869 16.4082 6.28464 16.4082 6.01706C16.4082 5.74947 16.6005 5.5354 16.8409 5.5354H19.4164C19.6568 5.5354 19.8491 5.74947 19.8491 6.01706C19.8491 6.28464 19.6568 6.49869 19.4164 6.49869Z" fill="white"/>
<path d="M19.4165 9.80877H18.1871C17.9467 9.80877 17.7544 9.5947 17.7544 9.32712C17.7544 9.05953 17.9467 8.84546 18.1871 8.84546H19.4165C19.6569 8.84546 19.8492 9.05953 19.8492 9.32712C19.8492 9.5947 19.6569 9.80877 19.4165 9.80877Z" fill="white"/>
<path d="M19.4165 13.1118H18.1871C17.9467 13.1118 17.7544 12.8977 17.7544 12.6301C17.7544 12.3625 17.9467 12.1484 18.1871 12.1484H19.4165C19.6569 12.1484 19.8492 12.3625 19.8492 12.6301C19.8492 12.8977 19.6569 13.1118 19.4165 13.1118Z" fill="white"/>
</svg>
