<svg width="22" height="30" viewBox="0 0 22 30" fill="none" xmlns="http://www.w3.org/2000/svg">
<path d="M10.7806 19.9834C10.5271 19.9834 9.94564 19.9834 6.69521 15.9389C6.51629 15.7142 6.55356 15.3953 6.78467 15.2141C7.01578 15.0402 7.3438 15.0764 7.53018 15.3011C8.69318 16.7507 10.1395 18.396 10.7284 18.8599C11.3547 18.1569 13.0246 15.4098 14.4261 12.8947C14.5678 12.6483 14.8884 12.554 15.1419 12.6918C15.3953 12.8295 15.4922 13.1412 15.3506 13.3876C11.6678 19.9834 11.1161 19.9834 10.7806 19.9834Z" fill="white"/>
<path d="M15.0888 4.11693H6.91054C6.22467 4.11693 5.66553 3.57332 5.66553 2.9065V1.21044C5.66553 0.543608 6.22467 0 6.91054 0H15.0888C15.7747 0 16.3338 0.543608 16.3338 1.21044V2.9065C16.3338 3.57332 15.7747 4.11693 15.0888 4.11693ZM6.91054 1.02923C6.80617 1.02923 6.72416 1.10896 6.72416 1.21044V2.9065C6.72416 3.00797 6.80617 3.0877 6.91054 3.0877H15.0888C15.1932 3.0877 15.2752 3.00797 15.2752 2.9065V1.21044C15.2752 1.10896 15.1932 1.02923 15.0888 1.02923H6.91054Z" fill="white"/>
<path d="M15.3427 23.6579H6.66492C4.89061 23.6579 3.44434 22.2517 3.44434 20.5267V12.0826C3.44434 10.3576 4.89061 8.95142 6.66492 8.95142H15.3427C17.117 8.95142 18.5633 10.3576 18.5633 12.0826V20.5267C18.5633 22.2517 17.117 23.6579 15.3427 23.6579ZM6.66492 9.47328C5.18136 9.47328 3.97364 10.6475 3.97364 12.0899V20.5339C3.97364 21.9763 5.18136 23.1505 6.66492 23.1505H15.3427C16.8262 23.1505 18.0339 21.9763 18.0339 20.5339V12.0899C18.0339 10.6475 16.8262 9.47328 15.3427 9.47328H6.66492Z" fill="white"/>
<path d="M17.9444 30H4.05557C1.81905 30 0 28.2314 0 26.057V5.66076C0 3.48632 1.81905 1.71777 4.05557 1.71777H6.19521C6.48596 1.71777 6.72451 1.94972 6.72451 2.2324C6.72451 2.51507 6.48596 2.74701 6.19521 2.74701H4.05557C2.40054 2.74701 1.05863 4.05167 1.05863 5.66076V26.057C1.05863 27.6661 2.40054 28.9707 4.05557 28.9707H17.9444C19.5995 28.9707 20.9414 27.6661 20.9414 26.057V5.66076C20.9414 4.05167 19.5995 2.74701 17.9444 2.74701H15.8048C15.5141 2.74701 15.2755 2.51507 15.2755 2.2324C15.2755 1.94972 15.5141 1.71777 15.8048 1.71777H17.9444C20.181 1.71777 22 3.48632 22 5.66076V26.057C22 28.2314 20.181 30 17.9444 30Z" fill="white"/>
</svg>
