<svg width="28" height="27" viewBox="0 0 28 27" fill="none" xmlns="http://www.w3.org/2000/svg">
<path d="M3.73619 7.01933H15.2472C15.515 7.01933 15.7348 6.79958 15.7348 6.53172C15.7348 6.26386 15.515 6.04407 15.2472 6.04407H3.73619C3.46833 6.04407 3.24854 6.26386 3.24854 6.53172C3.24854 6.79958 3.46833 7.01933 3.73619 7.01933Z" fill="white"/>
<path d="M3.73619 10.4878H13.7705C14.0384 10.4878 14.2581 10.268 14.2581 10.0001C14.2581 9.73225 14.0384 9.51245 13.7705 9.51245H3.73619C3.46833 9.51245 3.24854 9.73225 3.24854 10.0001C3.24854 10.2748 3.46833 10.4878 3.73619 10.4878Z" fill="white"/>
<path d="M13.173 13.647C13.173 13.3791 12.9532 13.1593 12.6854 13.1593H3.72933C3.46147 13.1593 3.2417 13.3791 3.2417 13.647C3.2417 13.9148 3.46147 14.1346 3.72933 14.1346H12.6854C12.9601 14.1277 13.173 13.9148 13.173 13.647Z" fill="white"/>
<path d="M11.2293 21.4424H3.73619C3.46833 21.4424 3.24854 21.6622 3.24854 21.93C3.24854 22.1979 3.46833 22.4177 3.73619 22.4177H11.2293C11.4972 22.4177 11.717 22.1979 11.717 21.93C11.717 21.6622 11.4972 21.4424 11.2293 21.4424Z" fill="white"/>
<path d="M27.9602 10.6525C27.9876 10.2816 27.864 9.91756 27.6167 9.63597L27.4107 9.3956C27.1635 9.11401 26.82 8.94917 26.4492 8.9217C26.0783 8.89422 25.7143 9.01785 25.4327 9.2651L20.2678 13.7981V2.6923C20.2678 1.20878 19.0591 0 17.5755 0H2.6923C1.20878 0 0 1.20878 0 2.6923V24.114C0 25.5975 1.20878 26.8063 2.6923 26.8063H17.5755C19.0591 26.8063 20.2678 25.5975 20.2678 24.114V17.9739C20.2678 17.967 20.2678 17.9602 20.2678 17.9533L27.4931 11.614C27.7679 11.3667 27.9396 11.0302 27.9602 10.6525ZM19.2926 24.114C19.2926 25.0618 18.5233 25.831 17.5755 25.831H2.6923C1.74449 25.831 0.975263 25.0618 0.975263 24.114V2.6923C0.975263 1.74449 1.74449 0.975263 2.6923 0.975263H17.5755C18.5233 0.975263 19.2926 1.74449 19.2926 2.6923V14.6566L14.6154 18.7569L14.5742 18.7912L14.3681 18.9767L14.3613 18.9835H14.3681C14.3475 19.0041 14.3269 19.0247 14.3132 19.0522L12.8159 22.1154C12.8159 22.1223 12.8159 22.1291 12.8091 22.136C12.8022 22.1566 12.7953 22.1841 12.7885 22.2047C12.7885 22.2253 12.7953 22.2459 12.7953 22.2733C12.7953 22.2802 12.7953 22.2939 12.7953 22.3008C12.8091 22.342 12.8365 22.3764 12.8777 22.4107C12.8846 22.4176 12.8915 22.4244 12.8983 22.4313C12.9052 22.4382 12.9121 22.445 12.919 22.445C12.9533 22.4588 12.9876 22.4725 13.0288 22.4725C13.0563 22.4725 13.0838 22.4657 13.1044 22.4588L16.3393 21.3736C16.3667 21.3668 16.3942 21.3461 16.4148 21.3255H16.4217L16.6277 21.147C16.6277 21.147 16.6346 21.147 16.6346 21.1401L19.2995 18.8049V24.114H19.2926ZM14.6497 21.0096C14.7596 21.1332 14.8832 21.2225 15.0206 21.2981L13.5027 21.8063L14.2033 20.3709C14.2582 20.5151 14.3407 20.6525 14.4437 20.7692L14.6497 21.0096ZM20.831 16.8063L19.9931 17.5412L19.2926 18.1525V18.1593L18.8256 18.5714L16.3118 20.7761C15.9341 21.1058 15.3571 21.0714 15.0206 20.6937L14.8146 20.4533C14.4849 20.0755 14.5192 19.4986 14.897 19.1621L18.3997 16.092L20.8379 13.956L24.8832 10.4121C25.4601 10.8585 25.934 11.3942 26.2981 12.0261L20.831 16.8063ZM27.1635 11.25L26.6621 11.6896C26.2912 11.0714 25.8173 10.5288 25.2472 10.0755L25.7486 9.63597C25.9341 9.478 26.1676 9.39561 26.408 9.40935C26.6483 9.42309 26.875 9.53298 27.033 9.71842L27.239 9.95879C27.397 10.1442 27.4794 10.3778 27.4657 10.6181C27.4588 10.8654 27.3489 11.092 27.1635 11.25Z" fill="white"/>
</svg>
