<svg width="24" height="23" viewBox="0 0 24 23" fill="none" xmlns="http://www.w3.org/2000/svg">
<path d="M13.1866 22.287H10.5973C7.93933 22.287 5.77588 20.1236 5.77588 17.4656V13.2692C5.77588 10.6112 7.93933 8.44775 10.5973 8.44775H13.1866C15.8446 8.44775 18.008 10.6112 18.008 13.2692V17.4656C18.0149 20.1236 15.8514 22.287 13.1866 22.287ZM10.6042 9.51233C8.53687 9.51233 6.85418 11.195 6.85418 13.2623V17.4587C6.85418 19.526 8.53687 21.2088 10.6042 21.2088H13.1935C15.2608 21.2088 16.9435 19.526 16.9435 17.4587V13.2623C16.9435 11.195 15.2608 9.51233 13.1935 9.51233H10.6042Z" fill="white"/>
<path d="M11.8961 9.11386C9.58836 9.11386 7.72021 7.23887 7.72021 4.93804C7.72021 2.63035 9.59523 0.762207 11.8961 0.762207C14.2037 0.762207 16.0719 2.63722 16.0719 4.93804C16.0787 7.23887 14.2037 9.11386 11.8961 9.11386ZM11.8961 1.82678C10.1859 1.82678 8.79164 3.221 8.79164 4.93117C8.79164 6.64133 10.1859 8.03556 11.8961 8.03556C13.6062 8.03556 15.0004 6.64133 15.0004 4.93117C15.0004 3.221 13.6062 1.82678 11.8961 1.82678Z" fill="white"/>
<path d="M19.6222 21.2157H14.684L15.7829 20.2748C16.5178 19.6429 16.9436 18.7295 16.9436 17.7748V12.6649C16.9436 10.8449 15.467 9.36822 13.6469 9.36822H12.1978L13.2898 8.42729C14.0865 7.74734 15.0892 7.37646 16.1263 7.37646H19.6291C22.0398 7.37646 23.9972 9.33389 23.9972 11.7446V16.8545C23.9903 19.2515 22.026 21.2157 19.6222 21.2157ZM17.3076 20.1375H19.6222C21.4423 20.1375 22.9189 18.6608 22.9189 16.8407V11.7309C22.9189 9.9108 21.4423 8.43416 19.6222 8.43416H16.1195C15.8035 8.43416 15.4876 8.48225 15.1922 8.57153C16.8406 9.19653 18.0151 10.7899 18.0151 12.6581V17.768C18.0151 18.6196 17.7678 19.4369 17.3076 20.1375Z" fill="white"/>
<path d="M9.30631 21.3186H4.36812C1.95741 21.3186 0 19.3611 0 16.9504V11.8405C0 9.42982 1.95741 7.47241 4.36812 7.47241H7.87087C8.90796 7.47241 9.91071 7.84329 10.7074 8.52324L11.8063 9.46417H10.3571C8.53021 9.46417 7.04671 10.9408 7.04671 12.7609V17.8708C7.04671 18.8254 7.47254 19.7389 8.20743 20.3708L9.30631 21.3186ZM4.36812 8.54384C2.54807 8.54384 1.07143 10.0205 1.07143 11.8405V16.9504C1.07143 18.7705 2.54807 20.2471 4.36812 20.2471H6.6827C6.2294 19.5466 5.97528 18.7224 5.97528 17.8776V12.7677C5.97528 10.9065 7.14972 9.30619 8.79807 8.68119C8.49588 8.5919 8.18681 8.54384 7.87087 8.54384H4.36812Z" fill="white"/>
<path d="M18.1869 8.3585C17.0262 8.3585 15.9067 7.864 15.1169 7.00548L14.8696 6.73764L15.0207 6.41483C15.213 5.99588 15.316 5.55631 15.316 5.10302C15.316 4.32692 15.0207 3.57829 14.4919 3.00137L14.2515 2.73352L14.4026 2.41072C15.0894 0.947809 16.5729 0 18.1869 0C20.4946 0 22.3627 1.87499 22.3627 4.17582C22.3627 6.47664 20.4946 8.3585 18.1869 8.3585ZM16.1471 6.511C16.7103 7.01237 17.4245 7.28022 18.1938 7.28022C19.9039 7.28022 21.2982 5.88598 21.2982 4.17582C21.2982 2.46565 19.9039 1.07143 18.1938 1.07143C17.1086 1.07143 16.099 1.64834 15.5427 2.56867C16.099 3.2967 16.4012 4.18269 16.4012 5.10302C16.3943 5.58379 16.3119 6.0577 16.1471 6.511Z" fill="white"/>
<path d="M5.61089 8.35847C3.3032 8.35847 1.43506 6.48347 1.43506 4.18265C1.43506 1.88183 3.31007 0.00683594 5.61089 0.00683594C7.22491 0.00683594 8.70841 0.954624 9.39522 2.41754L9.54632 2.74034L9.30593 3.00821C8.77708 3.58513 8.48177 4.33375 8.48177 5.10985C8.48177 5.56315 8.57792 6.00271 8.77709 6.42167L8.92819 6.74447L8.6878 7.01232C7.8911 7.86397 6.77161 8.35847 5.61089 8.35847ZM5.61089 1.07139C3.90073 1.07139 2.50649 2.46561 2.50649 4.17578C2.50649 5.88594 3.90073 7.28018 5.61089 7.28018C6.37326 7.28018 7.08753 7.00546 7.65758 6.51096C7.49275 6.05766 7.41034 5.58375 7.41034 5.10298C7.41034 4.18265 7.71254 3.29666 8.26886 2.56864C7.71254 1.64831 6.70293 1.07139 5.61089 1.07139Z" fill="white"/>
</svg>
