<svg width="58" height="58" viewBox="0 0 58 58" fill="none" xmlns="http://www.w3.org/2000/svg">
<g filter="url(#filter0_d_1391_63)">
<circle cx="29" cy="25" r="25" fill="url(#paint0_linear_1391_63)"/>
<path fill-rule="evenodd" clip-rule="evenodd" d="M40.0345 32.4138C43.0936 30.046 45 26.7039 45 23C45 15.8203 37.8366 10 29 10C20.1634 10 13 15.8203 13 23C13 28.1262 16.6517 32.5593 21.9568 34.6759C23.2701 35.602 22.0935 38.7858 21 40.9729C27.5 41.4729 39.2 33.6999 40 32.4999C40.0207 32.4689 40.032 32.4402 40.0345 32.4138Z" fill="white"/>
<path d="M27.3148 28.008C27.2348 27.176 27.2748 26.472 27.4348 25.896C27.5948 25.304 27.8108 24.8 28.0828 24.384C28.3708 23.952 28.6908 23.584 29.0428 23.28C29.4108 22.96 29.7468 22.656 30.0508 22.368C30.3708 22.08 30.6348 21.784 30.8428 21.48C31.0508 21.16 31.1548 20.784 31.1548 20.352C31.1548 19.792 30.9948 19.344 30.6748 19.008C30.3708 18.672 29.8188 18.504 29.0188 18.504C28.7628 18.504 28.4908 18.536 28.2028 18.6C27.9148 18.648 27.6268 18.728 27.3388 18.84C27.0508 18.936 26.7708 19.056 26.4988 19.2C26.2428 19.328 26.0108 19.464 25.8028 19.608L24.6028 17.304C25.2108 16.888 25.9068 16.544 26.6908 16.272C27.4908 16 28.4508 15.864 29.5708 15.864C31.0748 15.864 32.2508 16.232 33.0988 16.968C33.9468 17.688 34.3708 18.664 34.3708 19.896C34.3708 20.712 34.2588 21.392 34.0348 21.936C33.8268 22.464 33.5628 22.92 33.2428 23.304C32.9228 23.672 32.5708 24 32.1868 24.288C31.8028 24.576 31.4508 24.888 31.1308 25.224C30.8108 25.544 30.5388 25.92 30.3148 26.352C30.0908 26.784 29.9788 27.336 29.9788 28.008H27.3148ZM26.8348 31.416C26.8348 30.856 27.0108 30.416 27.3628 30.096C27.7148 29.76 28.1788 29.592 28.7548 29.592C29.3628 29.592 29.8428 29.76 30.1948 30.096C30.5468 30.416 30.7228 30.856 30.7228 31.416C30.7228 31.976 30.5468 32.424 30.1948 32.76C29.8428 33.096 29.3628 33.264 28.7548 33.264C28.1788 33.264 27.7148 33.096 27.3628 32.76C27.0108 32.424 26.8348 31.976 26.8348 31.416Z" fill="#37C99C"/>
</g>
<defs>
<filter id="filter0_d_1391_63" x="0" y="0" width="58" height="58" filterUnits="userSpaceOnUse" color-interpolation-filters="sRGB">
<feFlood flood-opacity="0" result="BackgroundImageFix"/>
<feColorMatrix in="SourceAlpha" type="matrix" values="0 0 0 0 0 0 0 0 0 0 0 0 0 0 0 0 0 0 127 0" result="hardAlpha"/>
<feOffset dy="4"/>
<feGaussianBlur stdDeviation="2"/>
<feComposite in2="hardAlpha" operator="out"/>
<feColorMatrix type="matrix" values="0 0 0 0 0 0 0 0 0 0 0 0 0 0 0 0 0 0 0.25 0"/>
<feBlend mode="normal" in2="BackgroundImageFix" result="effect1_dropShadow_1391_63"/>
<feBlend mode="normal" in="SourceGraphic" in2="effect1_dropShadow_1391_63" result="shape"/>
</filter>
<linearGradient id="paint0_linear_1391_63" x1="10.5" y1="47.5" x2="44.5" y2="6.5" gradientUnits="userSpaceOnUse">
<stop stop-color="#0CC84C"/>
<stop offset="1" stop-color="#5DCCE4"/>
</linearGradient>
</defs>
</svg>
