<svg width="58" height="58" viewBox="0 0 58 58" fill="none" xmlns="http://www.w3.org/2000/svg">
<g filter="url(#filter0_d_1391_59)">
<circle cx="29" cy="25" r="25" fill="url(#paint0_linear_1391_59)"/>
<path d="M24.7339 20.9883C24.1459 20.8655 24.2353 20 24.836 20H29.3068V20C31.2837 20 32.8864 21.6026 32.8864 23.5795V38.5132C32.8864 39.1929 33.2427 39.8229 33.8253 40.1732L33.8645 40.1968C34.007 40.2825 34.1618 40.346 34.3234 40.3851V40.3851C35.2657 40.613 35.1004 42 34.1309 42H28.0065C26.7477 42 25.7273 40.9796 25.7273 39.7208V22.2104C25.7273 21.6192 25.3126 21.1091 24.7339 20.9883V20.9883Z" fill="white"/>
<circle cx="28.5" cy="13.5" r="4.5" fill="white"/>
</g>
<defs>
<filter id="filter0_d_1391_59" x="0" y="0" width="58" height="58" filterUnits="userSpaceOnUse" color-interpolation-filters="sRGB">
<feFlood flood-opacity="0" result="BackgroundImageFix"/>
<feColorMatrix in="SourceAlpha" type="matrix" values="0 0 0 0 0 0 0 0 0 0 0 0 0 0 0 0 0 0 127 0" result="hardAlpha"/>
<feOffset dy="4"/>
<feGaussianBlur stdDeviation="2"/>
<feComposite in2="hardAlpha" operator="out"/>
<feColorMatrix type="matrix" values="0 0 0 0 0 0 0 0 0 0 0 0 0 0 0 0 0 0 0.25 0"/>
<feBlend mode="normal" in2="BackgroundImageFix" result="effect1_dropShadow_1391_59"/>
<feBlend mode="normal" in="SourceGraphic" in2="effect1_dropShadow_1391_59" result="shape"/>
</filter>
<linearGradient id="paint0_linear_1391_59" x1="54" y1="0" x2="9.5" y2="65.5" gradientUnits="userSpaceOnUse">
<stop offset="0.3125" stop-color="#F89E18"/>
<stop offset="1" stop-color="#C21C1C"/>
</linearGradient>
</defs>
</svg>
