<svg width="45" height="45" viewBox="0 0 45 45" fill="none" xmlns="http://www.w3.org/2000/svg">
<circle cx="22.5" cy="22.5" r="22.5" fill="url(#paint0_linear_1174_736)"/>
<path fill-rule="evenodd" clip-rule="evenodd" d="M22.5 26C26.6421 26 30 22.6421 30 18.5C30 14.3579 26.6421 11 22.5 11C18.3579 11 15 14.3579 15 18.5C15 22.6421 18.3579 26 22.5 26ZM22.4999 24.1249C25.6065 24.1249 28.1249 21.6065 28.1249 18.4999C28.1249 15.3933 25.6065 12.8749 22.4999 12.8749C19.3933 12.8749 16.8749 15.3933 16.8749 18.4999C16.8749 21.6065 19.3933 24.1249 22.4999 24.1249Z" fill="white"/>
<path d="M22.5 15V22M26 18.5H19" stroke="white" stroke-width="1.2" stroke-linecap="round"/>
<path d="M11.7002 33.75C20.6699 28.7112 25.3112 28.7889 34.2002 33.75" stroke="white" stroke-width="1.2" stroke-linecap="round"/>
<path d="M22.5 15V22M26 18.5H19" stroke="white" stroke-width="1.2" stroke-linecap="round"/>
<defs>
<linearGradient id="paint0_linear_1174_736" x1="3.6" y1="5.85" x2="40.95" y2="40.95" gradientUnits="userSpaceOnUse">
<stop stop-color="#F36133"/>
<stop offset="0.984375" stop-color="#F0D027"/>
</linearGradient>
</defs>
</svg>
