<svg width="300" height="300" viewBox="0 0 300 300" fill="none" xmlns="http://www.w3.org/2000/svg">
<circle cx="150" cy="150" r="150" fill="#CFBFDA"/>
<g filter="url(#filter0_d_1391_36)">
<path fill-rule="evenodd" clip-rule="evenodd" d="M61.3443 29.893C60.1203 32.5338 59.1514 35.7354 58.5844 39.0134C58.174 41.3855 58.1737 47.1244 58.5839 49.6108C59.7951 56.9531 62.1843 62.801 67.1754 70.6393C68.7308 73.0821 68.8464 73.5699 67.7066 72.881C66.0834 71.9 64.3898 70.4876 62.1712 68.2652C59.6789 65.7685 57.9039 63.5457 55.5446 59.9668C54.7937 58.8276 54.1402 57.8583 54.0926 57.8127C54.045 57.7672 54.0468 59.1093 54.0966 60.7953C54.2278 65.2314 54.9067 67.9785 56.8603 71.9797C59.2709 76.9168 62.6727 80.918 68.7316 85.9426C71.0511 87.866 71.5486 88.3705 71.3855 88.634C71.222 88.8983 69.7077 88.7087 67.3211 88.1253C62.7034 86.9966 58.8441 84.8767 55.3494 81.5495L54 80.2645L54.122 81.2587C54.1892 81.8055 54.4562 83.0933 54.7154 84.1206C57.1066 93.5971 64.9948 102.506 78.0657 110.491C79.0013 111.063 79.7666 111.555 79.7666 111.584C79.7666 111.68 77.4176 110.995 75.3692 110.302C72.211 109.234 69.7697 108.151 64.0903 105.298C61.1726 103.833 58.7192 102.606 58.6383 102.573C58.1968 102.389 59.5883 106.503 60.74 108.786C62.7787 112.828 65.6594 115.921 70.0341 118.764C71.882 119.966 75.6272 121.83 78.424 122.941L80.815 123.891L79.3366 124.018C77.5221 124.174 72.8668 123.885 69.8102 123.428C67.5521 123.09 63.3587 122.334 62.7742 122.159C62.3658 122.037 62.4701 122.317 63.2966 123.566C64.6518 125.613 67.3807 128.096 70.474 130.098C74.8316 132.919 79.2409 134.861 86.1553 137.005C87.9806 137.571 89.5456 138.104 89.6329 138.189C90.6522 139.181 83.2039 139.504 78.4391 138.675C77.2982 138.476 74.61 137.872 72.4653 137.333C70.3205 136.794 68.5081 136.353 68.4379 136.353C68.2433 136.353 68.9357 137.641 69.7289 138.755C70.6051 139.985 72.3897 141.708 73.7098 142.597C76.0885 144.199 79.5203 145.588 86.5558 147.798L90.4412 149.018L89.6257 149.371C87.7129 150.2 84.8706 150.595 80.7899 150.6C79.2515 150.601 78.2673 150.665 78.3008 150.76C78.3312 150.847 78.7939 151.442 79.3288 152.082C80.9381 154.008 83.3371 155.794 86.0723 157.102C87.24 157.66 91.737 159.236 93.8215 159.816L94.3524 159.964L93.5137 161.456C89.0061 169.47 87.4639 171.953 85.7779 173.909C84.1213 175.831 81.9253 177.291 79.6007 178.015C79.0987 178.171 78.5775 178.335 78.4424 178.379C78.126 178.481 79.1891 178.963 81.343 179.694C82.3574 180.038 82.9956 180.341 82.985 180.474C82.9754 180.594 82.3299 181.548 81.5506 182.595C73.3801 193.565 68.3149 204.349 66.3411 214.975C65.1495 221.39 65.0194 229.153 66.0067 234.942C67.7532 245.182 73.2073 254.006 79.6217 256.969C80.6859 257.461 83.5832 258.342 83.5832 258.174C83.5832 258.125 83.0693 257.295 82.441 256.33C78.1688 249.771 75.5019 242.761 74.2416 234.778C73.9355 232.839 73.8874 231.817 73.8819 227.154C73.8756 221.665 73.9257 220.978 74.6558 216.549C75.0192 214.344 75.187 213.733 75.4288 213.733C75.721 213.733 75.7369 214.366 75.4976 216.482C75.1857 219.24 75.1438 226.598 75.4254 229.142C76.4651 238.537 79.2738 246.676 83.8343 253.508C85.7856 256.431 86.9811 257.889 89.7163 260.681C98.2979 269.439 108.827 274.682 121.533 276.526C129.376 277.664 136.244 276.754 142.175 273.792C151.418 269.177 156.407 261.847 156.044 253.417C155.936 250.91 155.682 249.852 154.677 247.722C153.091 244.362 150.631 241.891 147.013 240.026C145.632 239.313 143.06 238.352 142.201 238.227L141.827 238.173L141.773 241.072C141.723 243.818 141.692 244.053 141.198 245.5C140.153 248.557 138.502 251.24 136.374 253.337C134.823 254.864 133.758 255.631 131.879 256.573C129.731 257.649 128.529 257.973 126.69 257.973H125.051L125.804 256.92C127.068 255.152 127.609 253.81 127.692 252.24C127.757 250.991 127.725 250.814 127.29 250.017C127.03 249.54 126.656 249.044 126.457 248.914C126.127 248.698 126.015 248.73 125.147 249.284C118.829 253.32 108.204 252.898 103.196 248.413L102.417 247.715L105.57 247.707C110.3 247.694 112.683 247.232 115.42 245.796C117.736 244.58 119.787 242.381 120.857 239.965C122.646 235.926 122.051 231.349 119.368 228.516C118.569 227.673 116.784 226.57 116.415 226.692C116.326 226.722 116.084 227.247 115.878 227.858C114.573 231.732 110.865 233.829 105.321 233.829C102.875 233.829 101.289 233.531 99.008 232.64C96.4892 231.657 94.8293 230.594 93.0282 228.811C90.6652 226.472 89.7787 224.464 89.6247 221.106C89.5647 219.796 89.6105 219.275 89.8433 218.621C90.0052 218.165 90.1991 217.792 90.2737 217.792C90.3486 217.792 90.6288 218.316 90.8965 218.956C91.1642 219.596 91.6069 220.391 91.8804 220.722C93.7068 222.935 97.9136 222.601 100.212 220.06C101.211 218.957 101.552 218.131 101.635 216.622C101.703 215.399 101.676 215.249 101.316 214.839C101.1 214.594 100.308 214.139 99.5551 213.829C97.0278 212.788 95.1339 211.096 94.0127 208.878C93.7405 208.34 93.5537 207.864 93.5973 207.82C93.641 207.777 94.312 207.602 95.0885 207.433C96.8872 207.04 97.7337 206.605 98.3508 205.754L98.8432 205.076L98.2241 204.626C97.3267 203.974 96.37 202.86 96.0101 202.048C95.5682 201.05 95.3817 199.44 95.5514 198.085C95.8954 195.339 97.7725 189.378 99.2605 186.306C100.367 184.022 101.663 182.354 103.396 180.985C105.791 179.092 108.628 177.919 112.54 177.203C115.817 176.603 117.963 176.439 124.57 176.284C129.636 176.165 130.897 176.087 132.274 175.803C134.48 175.349 136.616 174.725 138.336 174.032C140.402 173.199 140.639 173.191 142.658 173.886C147.909 175.693 153.524 176.467 161.409 176.471C166 176.474 167.334 176.318 169.598 175.513C170.836 175.073 173.688 173.651 173.688 173.473C173.688 173.417 173.003 173.204 172.166 173C170.287 172.543 168.823 171.859 167.865 170.992L167.134 170.331L169.623 170.45C170.992 170.515 173.643 170.569 175.514 170.569H178.915L180.326 169.927C181.102 169.574 181.796 169.231 181.869 169.165C181.941 169.1 180.761 168.307 179.246 167.405C177.13 166.144 176.58 165.749 176.874 165.702C177.084 165.668 178.844 165.774 180.784 165.938C184.717 166.27 185.565 166.204 187.262 165.434C188.217 165.001 189.784 164.018 189.784 163.851C189.784 163.801 189.131 163.552 188.333 163.297C186.14 162.597 184.284 161.649 183.285 160.718C182.469 159.958 182.433 159.894 182.817 159.888C183.046 159.884 184.166 160.082 185.306 160.327C187.015 160.695 187.814 160.775 189.867 160.783C192.709 160.794 194.069 160.488 195.524 159.51C196.256 159.019 197.418 157.726 197.418 157.404C197.418 157.332 197.1 157.223 196.712 157.162C195.01 156.895 192.141 156.173 191.291 155.798C190.783 155.573 189.994 155.151 189.538 154.86L188.709 154.331L190.201 154.224C191.022 154.165 192.701 154.109 193.934 154.1C199.821 154.054 204.932 152.785 208.172 150.566C208.885 150.077 209.863 148.903 209.863 148.536C209.863 148.4 208.847 148.28 206.495 148.139C200.261 147.765 197.427 147.166 196.372 146C196.074 145.671 196.092 145.669 200.355 145.562C205.495 145.433 208.987 145.199 210.744 144.866C214.707 144.116 218.622 142.161 221.273 139.607C222.336 138.584 223.47 137.126 223.47 136.784C223.47 136.718 223.153 136.705 222.765 136.754C220.553 137.039 214.58 137.196 212.538 137.023C210.512 136.851 207.603 136.258 206.922 135.878C206.655 135.728 206.666 135.699 207.042 135.558C207.27 135.473 209.063 135.24 211.025 135.04C219.4 134.187 223.079 133.396 226.895 131.627C229.663 130.344 232.047 128.579 233.377 126.825C234.171 125.779 235.046 124.161 234.897 124.013C234.849 123.965 234.256 124.115 233.579 124.346C232.106 124.849 228.95 125.646 227.453 125.894C224.159 126.44 218.901 126.503 219.325 125.992C219.421 125.877 221.308 124.983 223.518 124.005C231.214 120.601 234.967 118.633 237.909 116.46C240.511 114.538 242.781 112.104 244.202 109.711C244.805 108.696 246.129 105.403 245.99 105.264C245.958 105.232 244.331 105.905 242.376 106.76C238.411 108.492 234.924 109.675 230.896 110.656C226.28 111.779 224.836 112.03 207.457 114.737C190.117 117.437 183.92 118.513 180.724 119.379C172.307 121.66 165.948 125.337 159.765 131.5C157.797 133.461 156.822 134.324 156.707 134.209C156.211 133.714 157.008 128.839 158.033 126.099C159.949 120.978 162.891 117.252 167.798 113.732C170.539 111.765 173.566 110.506 177.177 109.83C180.16 109.271 180.456 109.071 179.894 107.985C179.101 106.452 176.56 104.707 174.276 104.127C172.707 103.729 172.295 103.79 170.959 104.622C170.3 105.032 169.718 105.367 169.665 105.367C169.478 105.367 169.36 104.109 169.509 103.707C169.809 102.897 169.473 102.484 167.997 101.845C165.622 100.817 164.935 100.681 162.588 100.77C159.975 100.869 158.568 101.267 155.085 102.891C148.117 106.138 146.77 106.352 137.62 105.659L132.5 105.272L132.601 106.024C132.762 107.223 133.599 108.736 134.575 109.591C135.051 110.007 136.205 110.728 137.14 111.193C138.076 111.659 138.841 112.102 138.841 112.178C138.841 112.255 138.412 112.441 137.887 112.591C137.362 112.741 136.871 112.9 136.795 112.945C136.72 112.989 137.037 113.28 137.501 113.592C137.964 113.903 138.343 114.179 138.343 114.204C138.343 114.229 137.351 115.252 136.139 116.478C131.828 120.834 128.102 125.757 124.48 131.879C123.86 132.927 123.298 133.849 123.23 133.927C123.162 134.006 122.916 133.782 122.683 133.43C121.833 132.144 121.689 130.422 121.668 121.274C121.647 112.281 121.555 111.069 120.604 107.311C119.532 103.071 117.464 98.9984 114.613 95.5086C114.091 94.8706 108.931 89.6933 103.146 84.0035C84.0454 65.2185 76.0079 57.1122 74.0563 54.6645C68.531 47.7354 65.288 41.3122 63.0137 32.7927C61.788 28.2016 61.9765 28.529 61.3443 29.893ZM164.118 104.765C164.612 104.971 165.561 105.898 165.555 106.167C165.55 106.328 162.099 108.269 161.41 108.499C160.453 108.818 158.528 108.911 157.416 108.692C156.223 108.458 155.239 108.03 155.317 107.779C155.378 107.582 160.392 104.959 161.16 104.722C161.918 104.489 163.511 104.512 164.118 104.765Z" fill="white"/>
</g>
<g filter="url(#filter1_d_1391_36)">
<path d="M178 216H228" stroke="white" stroke-width="10" stroke-linecap="round"/>
<path d="M203 191V241" stroke="white" stroke-width="10" stroke-linecap="round"/>
</g>
<defs>
<filter id="filter0_d_1391_36" x="50" y="29" width="200" height="256" filterUnits="userSpaceOnUse" color-interpolation-filters="sRGB">
<feFlood flood-opacity="0" result="BackgroundImageFix"/>
<feColorMatrix in="SourceAlpha" type="matrix" values="0 0 0 0 0 0 0 0 0 0 0 0 0 0 0 0 0 0 127 0" result="hardAlpha"/>
<feOffset dy="4"/>
<feGaussianBlur stdDeviation="2"/>
<feComposite in2="hardAlpha" operator="out"/>
<feColorMatrix type="matrix" values="0 0 0 0 0 0 0 0 0 0 0 0 0 0 0 0 0 0 0.25 0"/>
<feBlend mode="normal" in2="BackgroundImageFix" result="effect1_dropShadow_1391_36"/>
<feBlend mode="normal" in="SourceGraphic" in2="effect1_dropShadow_1391_36" result="shape"/>
</filter>
<filter id="filter1_d_1391_36" x="169" y="186" width="68" height="68" filterUnits="userSpaceOnUse" color-interpolation-filters="sRGB">
<feFlood flood-opacity="0" result="BackgroundImageFix"/>
<feColorMatrix in="SourceAlpha" type="matrix" values="0 0 0 0 0 0 0 0 0 0 0 0 0 0 0 0 0 0 127 0" result="hardAlpha"/>
<feOffset dy="4"/>
<feGaussianBlur stdDeviation="2"/>
<feComposite in2="hardAlpha" operator="out"/>
<feColorMatrix type="matrix" values="0 0 0 0 0 0 0 0 0 0 0 0 0 0 0 0 0 0 0.25 0"/>
<feBlend mode="normal" in2="BackgroundImageFix" result="effect1_dropShadow_1391_36"/>
<feBlend mode="normal" in="SourceGraphic" in2="effect1_dropShadow_1391_36" result="shape"/>
</filter>
</defs>
</svg>
