<svg width="1280" height="720" viewBox="0 0 1280 720" fill="none" xmlns="http://www.w3.org/2000/svg">
<g clip-path="url(#clip0_2_138)">
<rect width="1280" height="720" fill="white"/>
<path d="M0 0H1280V720H0V0Z" fill="url(#paint0_linear_2_138)"/>
<path fill-rule="evenodd" clip-rule="evenodd" d="M222.799 -190.493C218 -180.121 214.2 -167.547 211.977 -154.673C210.368 -145.357 210.366 -122.818 211.975 -113.053C216.724 -84.2164 226.093 -61.2493 245.665 -30.4652C251.763 -20.8711 252.217 -18.9552 247.747 -21.6611C241.382 -25.5135 234.741 -31.0606 226.042 -39.7892C216.269 -49.5948 209.308 -58.3248 200.057 -72.3805C197.112 -76.8544 194.55 -80.6613 194.363 -80.8403C194.176 -81.0192 194.183 -75.7481 194.379 -69.1267C194.893 -51.7039 197.555 -40.915 205.216 -25.2005C214.669 -5.81058 228.008 9.90388 251.767 29.6375C260.862 37.1914 262.813 39.173 262.173 40.2077C261.532 41.2457 255.594 40.5012 246.236 38.2099C228.128 33.7769 212.995 25.4511 199.291 12.3839L194 7.3373L194.478 11.2419C194.742 13.3893 195.789 18.447 196.805 22.4817C206.182 59.6998 237.114 94.6878 288.368 126.05C292.037 128.295 295.038 130.227 295.038 130.343C295.038 130.719 285.827 128.029 277.795 125.308C265.411 121.112 255.837 116.858 233.567 105.655C222.126 99.899 212.505 95.0815 212.188 94.95C210.457 94.229 215.913 110.388 220.429 119.355C228.424 135.228 239.72 147.374 256.874 158.542C264.12 163.26 278.806 170.583 289.773 174.947L299.149 178.678L293.352 179.176C286.237 179.787 267.982 178.654 255.996 176.858C247.142 175.532 230.698 172.561 228.406 171.874C226.805 171.395 227.213 172.496 230.455 177.399C235.769 185.438 246.469 195.193 258.599 203.056C275.686 214.133 292.977 221.76 320.09 230.181C327.247 232.404 333.384 234.496 333.726 234.83C337.724 238.726 308.516 239.995 289.832 236.738C285.359 235.957 274.818 233.587 266.407 231.469C257.997 229.352 250.89 227.619 250.615 227.619C249.852 227.619 252.567 232.68 255.677 237.055C259.113 241.886 266.111 248.65 271.288 252.142C280.615 258.435 294.072 263.891 321.66 272.568L336.896 277.359L333.698 278.747C326.198 282.002 315.052 283.554 299.051 283.573C293.018 283.579 289.159 283.829 289.29 284.203C289.409 284.544 291.224 286.88 293.321 289.396C299.632 296.959 309.039 303.973 319.764 309.11C324.343 311.303 341.977 317.489 350.151 319.77L352.233 320.352L348.944 326.208C331.269 357.685 325.221 367.435 318.61 375.117C312.114 382.666 303.503 388.399 294.387 391.244C292.419 391.859 290.375 392.502 289.845 392.673C288.605 393.075 292.774 394.968 301.22 397.838C305.197 399.189 307.7 400.381 307.658 400.903C307.62 401.373 305.089 405.12 302.034 409.23C269.995 452.317 250.133 494.67 242.393 536.403C237.72 561.598 237.21 592.086 241.082 614.819C247.93 655.037 269.317 689.693 294.47 701.329C298.643 703.26 310.004 706.722 310.004 706.063C310.004 705.868 307.989 702.609 305.525 698.821C288.772 673.059 278.315 645.529 273.373 614.177C272.173 606.562 271.984 602.548 271.962 584.234C271.938 562.677 272.134 559.979 274.997 542.585C276.422 533.924 277.08 531.522 278.028 531.522C279.174 531.522 279.236 534.008 278.298 542.32C277.075 553.151 276.911 582.049 278.015 592.043C282.092 628.939 293.105 660.903 310.988 687.736C318.64 699.217 323.328 704.943 334.054 715.907C367.704 750.304 408.99 770.898 458.815 778.138C489.57 782.607 516.503 779.034 539.76 767.401C576.002 749.274 595.566 720.486 594.143 687.379C593.72 677.534 592.724 673.38 588.782 665.014C582.562 651.815 572.915 642.113 558.73 634.786C553.315 631.989 543.229 628.214 539.859 627.722L538.393 627.509L538.183 638.897C537.985 649.682 537.866 650.604 535.927 656.287C531.832 668.293 525.356 678.828 517.01 687.064C510.93 693.063 506.753 696.075 499.384 699.774C490.962 704 486.25 705.274 479.038 705.274H472.612L475.563 701.138C480.518 694.193 482.642 688.922 482.965 682.759C483.222 677.853 483.097 677.158 481.392 674.025C480.373 672.152 478.903 670.203 478.125 669.693C476.832 668.846 476.39 668.971 472.987 671.148C448.213 686.997 406.551 685.341 386.912 667.725L383.858 664.986L396.221 664.953C414.769 664.903 424.112 663.088 434.843 657.448C443.928 652.674 451.969 644.038 456.165 634.549C463.18 618.684 460.846 600.71 450.325 589.583C447.194 586.272 440.192 581.94 438.748 582.421C438.398 582.538 437.45 584.597 436.642 586.999C431.522 602.215 416.984 610.451 395.245 610.451C385.65 610.451 379.434 609.279 370.489 605.781C360.612 601.919 354.103 597.744 347.04 590.741C337.774 581.554 334.298 573.67 333.694 560.481C333.459 555.337 333.638 553.291 334.551 550.72C335.186 548.93 335.946 547.466 336.239 547.466C336.533 547.466 337.632 549.523 338.681 552.037C339.731 554.551 341.467 557.673 342.539 558.974C349.702 567.665 366.197 566.351 375.211 556.373C379.126 552.039 380.466 548.797 380.792 542.871C381.056 538.067 380.95 537.479 379.54 535.869C378.694 534.904 375.586 533.117 372.634 531.899C362.724 527.812 355.298 521.169 350.901 512.458C349.834 510.344 349.101 508.474 349.272 508.303C349.443 508.131 352.075 507.446 355.119 506.781C362.173 505.24 365.492 503.529 367.912 500.188L369.842 497.523L367.415 495.757C363.896 493.197 360.145 488.822 358.733 485.631C357 481.712 356.269 475.388 356.935 470.068C358.284 459.284 365.644 435.871 371.479 423.805C375.817 414.835 380.9 408.284 387.694 402.908C397.088 395.474 408.211 390.866 423.55 388.055C436.402 385.7 444.817 385.056 470.726 384.447C490.589 383.98 495.533 383.671 500.933 382.557C509.583 380.773 517.96 378.322 524.703 375.6C532.808 372.328 533.734 372.297 541.651 375.026C562.244 382.124 584.263 385.166 615.18 385.182C633.185 385.191 638.415 384.579 647.292 381.419C652.145 379.691 663.331 374.103 663.331 373.406C663.331 373.186 660.645 372.35 657.362 371.549C649.995 369.752 644.251 367.067 640.494 363.662L637.629 361.065L647.389 361.533C652.757 361.79 663.152 362 670.489 362H683.828L689.359 359.479C692.401 358.092 695.123 356.746 695.408 356.488C695.692 356.23 691.064 353.118 685.124 349.573C676.827 344.622 674.671 343.072 675.822 342.886C676.646 342.753 683.546 343.17 691.155 343.813C706.576 345.116 709.903 344.857 716.555 341.835C720.3 340.134 726.445 336.27 726.447 335.616C726.448 335.421 723.886 334.442 720.755 333.441C712.157 330.691 704.88 326.966 700.962 323.312C697.763 320.328 697.62 320.074 699.127 320.051C700.025 320.037 704.417 320.814 708.887 321.778C715.59 323.223 718.723 323.536 726.774 323.568C737.918 323.611 743.248 322.41 748.955 318.568C751.824 316.638 756.381 311.562 756.381 310.297C756.381 310.013 755.136 309.585 753.615 309.346C746.94 308.298 735.688 305.462 732.358 303.99C730.362 303.107 727.268 301.45 725.482 300.306L722.233 298.226L728.083 297.807C731.3 297.576 737.886 297.356 742.72 297.319C765.805 297.138 785.845 292.156 798.55 283.441C801.348 281.521 805.183 276.911 805.183 275.466C805.183 274.933 801.198 274.463 791.975 273.909C767.531 272.44 756.418 270.087 752.281 265.507C751.113 264.215 751.18 264.208 767.897 263.788C788.052 263.281 801.747 262.363 808.636 261.056C824.178 258.107 839.527 250.429 849.925 240.401C854.093 236.382 858.54 230.657 858.54 229.311C858.54 229.052 857.295 229.001 855.774 229.197C847.098 230.315 823.677 230.932 815.673 230.253C807.726 229.578 796.319 227.248 793.65 225.754C792.602 225.167 792.646 225.05 794.121 224.499C795.016 224.164 802.043 223.248 809.738 222.463C842.579 219.112 857.005 216.005 871.97 209.06C882.824 204.022 892.171 197.087 897.388 190.2C900.5 186.093 903.93 179.738 903.349 179.157C903.16 178.969 900.834 179.557 898.179 180.464C892.401 182.439 880.029 185.57 874.156 186.544C861.241 188.686 840.622 188.935 842.287 186.929C842.663 186.476 850.06 182.964 858.726 179.125C888.904 165.755 903.62 158.028 915.158 149.493C925.361 141.944 934.261 132.385 939.835 122.985C942.198 119 947.39 106.066 946.845 105.522C946.719 105.395 940.342 108.038 932.673 111.395C917.128 118.198 903.455 122.846 887.66 126.696C869.559 131.107 863.894 132.095 795.748 142.724C727.753 153.329 703.452 157.556 690.918 160.958C657.915 169.913 632.98 184.356 608.733 208.559C601.017 216.26 597.194 219.653 596.741 219.2C594.797 217.256 597.924 198.111 601.943 187.35C609.454 167.237 620.991 152.602 640.232 138.777C650.981 131.053 662.853 126.106 677.013 123.453C688.71 121.26 689.868 120.472 687.667 116.209C684.556 110.186 674.592 103.333 665.635 101.056C659.482 99.4917 657.868 99.7331 652.629 102.999C650.045 104.609 647.761 105.927 647.554 105.927C646.821 105.927 646.357 100.986 646.941 99.4051C648.119 96.2236 646.804 94.6006 641.015 92.0919C631.7 88.0559 629.006 87.5197 619.802 87.8698C609.557 88.2596 604.042 89.8214 590.381 96.1995C563.06 108.955 557.779 109.794 521.898 107.073L501.82 105.55L502.216 108.505C502.848 113.216 506.13 119.155 509.958 122.514C511.822 124.15 516.347 126.982 520.016 128.808C523.684 130.635 526.685 132.376 526.685 132.676C526.685 132.976 525.002 133.706 522.944 134.297C520.886 134.887 518.96 135.512 518.664 135.686C518.367 135.859 519.612 137.003 521.429 138.227C523.246 139.45 524.733 140.532 524.733 140.631C524.733 140.73 520.843 144.748 516.088 149.562C499.185 166.672 484.574 186.004 470.373 210.048C467.942 214.164 465.735 217.784 465.469 218.093C465.202 218.401 464.237 217.523 463.325 216.141C459.99 211.091 459.426 204.326 459.344 168.4C459.263 133.079 458.9 128.318 455.173 113.56C450.969 96.9062 442.862 80.9132 431.679 67.207C429.634 64.7016 409.401 44.368 386.714 22.0216C311.816 -51.7547 280.299 -83.5917 272.646 -93.2047C250.98 -120.418 238.264 -145.645 229.345 -179.105C224.539 -197.136 225.278 -195.85 222.799 -190.493ZM625.805 103.561C627.741 104.37 631.463 108.01 631.436 109.068C631.42 109.698 617.887 117.324 615.183 118.226C611.432 119.478 603.885 119.845 599.522 118.986C594.846 118.066 590.988 116.385 591.293 115.399C591.532 114.624 611.192 104.322 614.204 103.393C617.177 102.476 623.425 102.567 625.805 103.561ZM736.766 463.489C724.409 466.055 713.454 473.346 707.033 483.282C699.745 494.559 696.206 512 697.732 529.122C699.274 546.428 703.91 557.702 713.457 567.359C719.081 573.048 725.805 576.788 734.582 579.111C741.86 581.037 757.752 581.206 764.84 579.434C784.695 574.469 797.711 559.542 801.717 537.142C803.173 529.001 803.173 512.864 801.716 505.419C797.495 483.847 785.759 469.825 767.432 464.459C761.189 462.631 743.581 462.075 736.766 463.489ZM491.082 464.3C490.289 464.453 488.898 465.461 487.991 466.539L486.342 468.498V521.861V575.223L488.244 577.125C489.887 578.769 490.636 579.027 493.739 579.027C496.597 579.027 497.705 578.707 499.157 577.458L500.983 575.889L501.308 556.576L501.634 537.264L503.459 535.695C505.153 534.239 505.813 534.125 512.569 534.119C529.46 534.107 541.209 532.089 550.436 527.617C562.215 521.907 568.179 513.247 569.342 500.164C570.224 490.235 567.182 481.638 560.547 475.309C551.364 466.549 538.252 463.793 506.514 463.951C498.819 463.989 491.875 464.146 491.082 464.3ZM591.289 464.308C590.496 464.457 589.105 465.461 588.198 466.539L586.549 468.498V521.861V575.223L588.451 577.125C589.943 578.617 590.936 579.027 593.056 579.027C595.176 579.027 596.169 578.617 597.661 577.125L599.563 575.223V552.679C599.563 529.239 599.654 528.397 602.405 526.168C603.667 525.145 606.132 525.042 629.627 525.029C647.589 525.019 655.957 525.241 657.088 525.756C660.53 527.324 660.728 528.802 660.728 552.883V575.023L662.413 577.025C663.819 578.697 664.566 579.027 666.932 579.027C668.989 579.027 670.266 578.597 671.591 577.457L673.417 575.886V521.87V467.853L671.907 466.246C671.077 465.362 669.508 464.461 668.422 464.244C666 463.759 662.509 465.29 661.479 467.289C660.984 468.249 660.684 475.478 660.571 489.114L660.403 509.505L658.278 511.403L656.153 513.301H630.07H603.988L601.775 511.088L599.563 508.876V488.993C599.563 475.806 599.32 468.576 598.841 467.525C597.785 465.209 594.329 463.736 591.289 464.308ZM831.395 464.291C830.602 464.449 829.211 465.461 828.304 466.539L826.656 468.498V521.861V575.223L828.558 577.125L830.46 579.027H862.098H893.736L895.333 577.43C896.436 576.328 896.931 575.109 896.931 573.496C896.931 571.883 896.436 570.665 895.333 569.562L893.736 567.965L870.119 567.962C847.663 567.96 846.397 567.896 844.371 566.661C843.199 565.946 841.941 564.574 841.575 563.613C841.166 562.537 840.985 555.436 841.104 545.133C841.319 526.403 841.333 526.349 846.111 525.022C847.449 524.65 857.466 524.37 869.468 524.368L890.483 524.364L892.08 522.766C893.183 521.664 893.677 520.446 893.677 518.832C893.677 517.219 893.183 516.001 892.08 514.899L890.483 513.301H867.939H845.396L843.148 511.053L840.901 508.806L841.098 494.147L841.296 479.488L843.099 477.686L844.903 475.883L869.674 475.557L894.444 475.232L895.688 473.695C897.422 471.552 897.281 468.228 895.361 465.995L893.79 464.169L863.314 464.086C846.552 464.04 832.189 464.132 831.395 464.291ZM931.212 464.787C929.846 465.274 928.132 466.212 927.403 466.871C924.163 469.804 924.26 468.057 924.26 523.483V575.377L926.008 577.202C928.448 579.748 932.447 579.773 934.963 577.257L936.734 575.485L936.516 529.414C936.335 491.189 936.443 483.537 937.155 484.493C937.626 485.126 952.024 505.703 969.149 530.221C986.275 554.738 1001.21 575.676 1002.33 576.75C1004.19 578.52 1004.79 578.702 1008.73 578.702C1012.19 578.702 1013.5 578.404 1015.11 577.251C1019.45 574.158 1019.26 576.749 1019.26 520.229C1019.26 484.146 1019.05 468.644 1018.54 467.525C1017.59 465.441 1015.21 464.222 1012.25 464.306C1010.42 464.358 1009.42 464.872 1007.97 466.49L1006.08 468.607L1006.37 514.388C1006.52 539.567 1006.41 559.925 1006.11 559.629C1005.81 559.332 991.233 538.335 973.708 512.969C954.614 485.332 941.124 466.407 940.047 465.747C937.429 464.143 934.051 463.776 931.212 464.787ZM1051.81 464.984C1050.56 465.609 1049.17 466.853 1048.72 467.748C1048.09 469.008 1047.91 481.163 1047.9 521.631C1047.89 577.72 1047.83 576.601 1051.11 578.357C1053.6 579.691 1057.28 579.163 1059.16 577.202L1060.91 575.377V521.846C1060.91 484.743 1060.69 467.91 1060.2 467C1059.59 465.848 1056.01 463.842 1054.58 463.845C1054.3 463.845 1053.05 464.358 1051.81 464.984ZM1088.48 464.779C1084.23 466.628 1083.04 471.524 1085.83 475.629C1086.66 476.842 1094.27 486.575 1102.75 497.257C1116.8 514.962 1118.17 516.9 1118.17 519.17C1118.17 522.039 1119.94 519.555 1097.31 548.445C1088.39 559.843 1080.78 569.966 1080.41 570.939C1079.52 573.267 1080.62 576.626 1082.71 577.998C1083.58 578.564 1085.56 579.027 1087.11 579.027C1089.37 579.027 1090.28 578.662 1091.6 577.238C1092.51 576.253 1100.35 566.15 1109.01 554.784C1117.68 543.419 1125.31 533.828 1125.98 533.472C1127.88 532.454 1131.56 532.712 1132.98 533.963C1133.69 534.589 1141.37 544.548 1150.03 556.095C1158.7 567.642 1166.42 577.525 1167.18 578.058C1172.14 581.538 1179.57 575.797 1177.71 569.92C1177.46 569.143 1169.1 558.037 1159.14 545.241C1149.17 532.444 1140.84 521.256 1140.62 520.378C1140.4 519.5 1140.51 518.022 1140.86 517.092C1141.21 516.164 1148.99 505.985 1158.14 494.473C1173.53 475.116 1174.78 473.349 1174.78 470.98C1174.78 467.216 1172.03 464.317 1168.47 464.317C1167.02 464.317 1165.52 464.507 1165.15 464.738C1164.77 464.969 1158.1 473.428 1150.32 483.536C1142.55 493.643 1135.44 502.715 1134.54 503.695C1132.55 505.86 1129.34 506.587 1127.07 505.388C1126.16 504.908 1118.81 495.877 1110.74 485.318C1097.02 467.376 1093.74 463.773 1091.16 463.87C1090.81 463.883 1089.6 464.293 1088.48 464.779ZM762.562 475.317C780.018 479.791 789.087 495.56 789.087 521.436C789.087 545.814 780.976 561.342 765.147 567.264C760.162 569.13 751.662 569.99 745.338 569.268C734.83 568.07 730.061 565.882 723.496 559.25C715.086 550.752 712.165 541.975 711.673 523.713C711.321 510.651 712.362 503.677 715.95 495.073C720.713 483.65 730.328 476.232 742.863 474.31C747.993 473.524 757.454 474.007 762.562 475.317ZM534.32 476.585C542.714 478.319 548.499 482.02 551.924 487.848C553.554 490.621 553.689 491.395 553.689 498.008C553.689 504.525 553.526 505.498 551.874 508.864C547.279 518.22 538.505 521.702 518.157 522.242C507.6 522.523 505.838 522.425 504.396 521.48C501.412 519.525 501.237 518.123 501.442 497.747L501.634 478.696L503.459 477.127C505.246 475.59 505.538 475.557 517.314 475.557C525.743 475.557 530.833 475.865 534.32 476.585Z" fill="url(#paint1_linear_2_138)"/>
</g>
<defs>
<linearGradient id="paint0_linear_2_138" x1="1060.5" y1="41.5" x2="615.5" y2="697.5" gradientUnits="userSpaceOnUse">
<stop stop-color="#000F3F"/>
<stop offset="1" stop-color="#061863"/>
<stop offset="1" stop-color="#102065"/>
</linearGradient>
<linearGradient id="paint1_linear_2_138" x1="686" y1="4.49999" x2="686" y2="780" gradientUnits="userSpaceOnUse">
<stop stop-color="#A467C1"/>
<stop offset="1" stop-color="#1E0760" stop-opacity="0"/>
</linearGradient>
<clipPath id="clip0_2_138">
<rect width="1280" height="720" fill="white"/>
</clipPath>
</defs>
</svg>
