<svg width="45" height="45" viewBox="0 0 45 45" fill="none" xmlns="http://www.w3.org/2000/svg">
<circle cx="22.5" cy="22.5" r="22.5" fill="url(#paint0_linear_1160_727)"/>
<path fill-rule="evenodd" clip-rule="evenodd" d="M22.7998 26.25C26.9419 26.25 30.2998 22.8921 30.2998 18.75C30.2998 14.6079 26.9419 11.25 22.7998 11.25C18.6577 11.25 15.2998 14.6079 15.2998 18.75C15.2998 22.8921 18.6577 26.25 22.7998 26.25ZM22.7997 24.3749C25.9063 24.3749 28.4247 21.8565 28.4247 18.7499C28.4247 15.6433 25.9063 13.1249 22.7997 13.1249C19.6931 13.1249 17.1747 15.6433 17.1747 18.7499C17.1747 21.8565 19.6931 24.3749 22.7997 24.3749Z" fill="white"/>
<path d="M11.7002 33.75C20.6699 28.7112 25.3112 28.7889 34.2002 33.75" stroke="white" stroke-width="1.2" stroke-linecap="round"/>
<path d="M11.7002 33.75C20.6699 28.7112 25.3112 28.7889 34.2002 33.75" stroke="white" stroke-width="1.2" stroke-linecap="round"/>
<defs>
<linearGradient id="paint0_linear_1160_727" x1="2.5" y1="33.5" x2="40" y2="4.5" gradientUnits="userSpaceOnUse">
<stop stop-color="#65D090"/>
<stop offset="1" stop-color="#29947A"/>
</linearGradient>
</defs>
</svg>
