<svg width="50" height="50" viewBox="0 0 50 50" fill="none" xmlns="http://www.w3.org/2000/svg">
<circle cx="25" cy="25" r="25" fill="url(#paint0_linear_958_5)"/>
<path d="M23.05 9.5H26.95C28.3821 9.5 29.4256 9.5004 30.2475 9.56865C31.0633 9.6364 31.6158 9.76843 32.0744 10.0066C32.8963 10.4336 33.5664 11.1037 33.9934 11.9256C34.2316 12.3842 34.3636 12.9367 34.4313 13.7525C34.4996 14.5744 34.5 15.6179 34.5 17.05V32.95C34.5 34.3821 34.4996 35.4256 34.4313 36.2475C34.3636 37.0633 34.2316 37.6158 33.9934 38.0744C33.5664 38.8963 32.8963 39.5664 32.0744 39.9934C31.6158 40.2316 31.0633 40.3636 30.2475 40.4313C29.4256 40.4996 28.3821 40.5 26.95 40.5H25H23.05C21.6179 40.5 20.5744 40.4996 19.7525 40.4313C18.9367 40.3636 18.3842 40.2316 17.9256 39.9934C17.1037 39.5664 16.4336 38.8963 16.0066 38.0744C15.7684 37.6158 15.6364 37.0633 15.5687 36.2475C15.5004 35.4256 15.5 34.3821 15.5 32.95V17.05C15.5 15.6179 15.5004 14.5744 15.5687 13.7525C15.6364 12.9367 15.7684 12.3842 16.0066 11.9256C16.4336 11.1037 17.1037 10.4336 17.9256 10.0066C18.3842 9.76843 18.9367 9.6364 19.7525 9.56865C20.5744 9.5004 21.6179 9.5 23.05 9.5Z" stroke="white"/>
<path d="M21 10C21 9.44772 21.4477 9 22 9H28C28.5523 9 29 9.44772 29 10V10C29 10.5523 28.5523 11 28 11H22C21.4477 11 21 10.5523 21 10V10Z" fill="white"/>
<circle cx="25" cy="37" r="2" fill="white"/>
<defs>
<linearGradient id="paint0_linear_958_5" x1="50" y1="0" x2="0" y2="50" gradientUnits="userSpaceOnUse">
<stop offset="0.242857" stop-color="#5DBBE4"/>
<stop offset="0.785714" stop-color="#1DDB80"/>
</linearGradient>
</defs>
</svg>
