<svg width="50" height="50" viewBox="0 0 50 50" fill="none" xmlns="http://www.w3.org/2000/svg">
<path d="M25 50C38.8071 50 50 38.8071 50 25C50 11.1929 38.8071 0 25 0C11.1929 0 0 11.1929 0 25C0 38.8071 11.1929 50 25 50Z" fill="#33B476"/>
<path opacity="0.3" d="M32.1542 27.482C35.1025 27.482 37.4925 25.9758 37.4925 24.1179C37.4925 22.2599 35.1025 20.7537 32.1542 20.7537C29.2059 20.7537 26.8159 22.2599 26.8159 24.1179C26.8159 25.9758 29.2059 27.482 32.1542 27.482Z" fill="black"/>
<path opacity="0.3" d="M32.1543 28.4582C29.99 28.4582 28.1164 27.7436 26.9837 26.634C26.8781 26.8979 26.8159 27.1726 26.8159 27.4572C26.8159 29.3151 29.206 30.8214 32.1542 30.8214C35.1024 30.8214 37.4925 29.3151 37.4925 27.4572C37.4925 27.1727 37.4303 26.898 37.3248 26.6341C36.1921 27.7437 34.3185 28.4582 32.1543 28.4582Z" fill="black"/>
<path opacity="0.3" d="M32.1543 31.7974C29.99 31.7974 28.1164 31.0829 26.9837 29.9733C26.8781 30.2371 26.8159 30.5119 26.8159 30.7965C26.8159 32.6544 29.206 34.1606 32.1542 34.1606C35.1024 34.1606 37.4925 32.6544 37.4925 30.7965C37.4925 30.512 37.4303 30.2372 37.3248 29.9734C36.1921 31.083 34.3185 31.7974 32.1543 31.7974Z" fill="black"/>
<path opacity="0.3" d="M32.1543 35.1369C29.99 35.1369 28.1164 34.4224 26.9837 33.3127C26.8781 33.5766 26.8159 33.8513 26.8159 34.1359C26.8159 35.9938 29.206 37.5 32.1542 37.5C35.1024 37.5 37.4925 35.9938 37.4925 34.1359C37.4925 33.8514 37.4303 33.5767 37.3248 33.3128C36.1921 34.4224 34.3185 35.1369 32.1543 35.1369Z" fill="black"/>
<path opacity="0.3" d="M19.4081 20.7909C22.3563 20.7909 24.7463 19.2847 24.7463 17.4267C24.7463 15.5687 22.3563 14.0625 19.4081 14.0625C16.4598 14.0625 14.0698 15.5687 14.0698 17.4267C14.0698 19.2847 16.4598 20.7909 19.4081 20.7909Z" fill="black"/>
<path opacity="0.3" d="M19.4082 21.7671C17.2439 21.7671 15.3702 21.0526 14.2375 19.9429C14.132 20.2068 14.0698 20.4815 14.0698 20.7661C14.0698 22.624 16.4598 24.1302 19.4081 24.1302C22.3563 24.1302 24.7463 22.624 24.7463 20.7661C24.7463 20.4817 24.6841 20.2069 24.5786 19.943C23.4459 21.0527 21.5723 21.7671 19.4082 21.7671Z" fill="black"/>
<path opacity="0.3" d="M19.4082 25.1064C17.2439 25.1064 15.3702 24.3919 14.2375 23.2822C14.132 23.5461 14.0698 23.8208 14.0698 24.1055C14.0698 25.9634 16.4598 27.4696 19.4081 27.4696C22.3563 27.4696 24.7463 25.9634 24.7463 24.1055C24.7463 23.8209 24.6841 23.5462 24.5786 23.2824C23.4459 24.392 21.5723 25.1064 19.4082 25.1064Z" fill="black"/>
<path opacity="0.3" d="M19.4082 28.4458C17.2439 28.4458 15.3702 27.7312 14.2375 26.6216C14.132 26.8855 14.0698 27.1602 14.0698 27.4449C14.0698 29.3028 16.4598 30.809 19.4081 30.809C22.3563 30.809 24.7463 29.3028 24.7463 27.4449C24.7463 27.1603 24.6841 26.8856 24.5786 26.6217C23.4459 27.7314 21.5723 28.4458 19.4082 28.4458Z" fill="black"/>
<path opacity="0.3" d="M19.4082 31.7851C17.2439 31.7851 15.3702 31.0706 14.2375 29.9609C14.132 30.2248 14.0698 30.4996 14.0698 30.7842C14.0698 32.642 16.4598 34.1483 19.4081 34.1483C22.3563 34.1483 24.7463 32.642 24.7463 30.7842C24.7463 30.4997 24.6841 30.225 24.5786 29.961C23.4459 31.0707 21.5723 31.7851 19.4082 31.7851Z" fill="black"/>
<path opacity="0.3" d="M19.4082 35.1245C17.2439 35.1245 15.3702 34.4099 14.2375 33.3003C14.132 33.5641 14.0698 33.8388 14.0698 34.1235C14.0698 35.9814 16.4598 37.4876 19.4081 37.4876C22.3563 37.4876 24.7463 35.9814 24.7463 34.1235C24.7463 33.839 24.6841 33.5643 24.5786 33.3004C23.4459 34.41 21.5723 35.1245 19.4082 35.1245Z" fill="black"/>
<path d="M31.373 26.7008C34.3212 26.7008 36.7112 25.1946 36.7112 23.3366C36.7112 21.4786 34.3212 19.9724 31.373 19.9724C28.4247 19.9724 26.0347 21.4786 26.0347 23.3366C26.0347 25.1946 28.4247 26.7008 31.373 26.7008Z" fill="white"/>
<path d="M31.373 27.677C29.2088 27.677 27.3351 26.9624 26.2024 25.8528C26.0969 26.1166 26.0347 26.3914 26.0347 26.676C26.0347 28.5339 28.4247 30.0401 31.3729 30.0401C34.3212 30.0401 36.7112 28.5339 36.7112 26.676C36.7112 26.3915 36.649 26.1168 36.5436 25.8528C35.4108 26.9625 33.5372 27.677 31.373 27.677Z" fill="white"/>
<path d="M31.373 31.0162C29.2088 31.0162 27.3351 30.3017 26.2024 29.192C26.0969 29.4559 26.0347 29.7306 26.0347 30.0152C26.0347 31.8731 28.4247 33.3794 31.3729 33.3794C34.3212 33.3794 36.7112 31.8731 36.7112 30.0152C36.7112 29.7308 36.649 29.456 36.5436 29.1921C35.4108 30.3018 33.5372 31.0162 31.373 31.0162Z" fill="white"/>
<path d="M31.373 34.3557C29.2088 34.3557 27.3351 33.6411 26.2024 32.5315C26.0969 32.7953 26.0347 33.07 26.0347 33.3547C26.0347 35.2126 28.4247 36.7188 31.3729 36.7188C34.3212 36.7188 36.7112 35.2126 36.7112 33.3547C36.7112 33.0702 36.649 32.7955 36.5436 32.5316C35.4108 33.6412 33.5372 34.3557 31.373 34.3557Z" fill="white"/>
<path d="M18.6268 20.0097C21.5751 20.0097 23.9651 18.5035 23.9651 16.6455C23.9651 14.7875 21.5751 13.2812 18.6268 13.2812C15.6786 13.2812 13.2886 14.7875 13.2886 16.6455C13.2886 18.5035 15.6786 20.0097 18.6268 20.0097Z" fill="white"/>
<path d="M18.6269 20.9858C16.4626 20.9858 14.589 20.2713 13.4562 19.1616C13.3507 19.4255 13.2886 19.7003 13.2886 19.9849C13.2886 21.8428 15.6786 23.349 18.6269 23.349C21.575 23.349 23.9651 21.8428 23.9651 19.9849C23.9651 19.7004 23.9029 19.4256 23.7974 19.1618C22.6646 20.2714 20.7911 20.9858 18.6269 20.9858Z" fill="white"/>
<path d="M18.6269 24.3252C16.4626 24.3252 14.589 23.6106 13.4562 22.501C13.3507 22.7649 13.2886 23.0396 13.2886 23.3242C13.2886 25.1821 15.6786 26.6883 18.6269 26.6883C21.575 26.6883 23.9651 25.1821 23.9651 23.3242C23.9651 23.0397 23.9029 22.765 23.7974 22.5011C22.6646 23.6107 20.7911 24.3252 18.6269 24.3252Z" fill="white"/>
<path d="M18.6269 27.6645C16.4626 27.6645 14.589 26.95 13.4562 25.8403C13.3507 26.1042 13.2886 26.379 13.2886 26.6636C13.2886 28.5215 15.6786 30.0277 18.6269 30.0277C21.575 30.0277 23.9651 28.5215 23.9651 26.6636C23.9651 26.3791 23.9029 26.1044 23.7974 25.8405C22.6646 26.9501 20.7911 27.6645 18.6269 27.6645Z" fill="white"/>
<path d="M18.6269 31.0039C16.4626 31.0039 14.589 30.2893 13.4562 29.1797C13.3507 29.4435 13.2886 29.7183 13.2886 30.0029C13.2886 31.8608 15.6786 33.367 18.6269 33.367C21.575 33.367 23.9651 31.8608 23.9651 30.0029C23.9651 29.7184 23.9029 29.4437 23.7974 29.1798C22.6646 30.2894 20.7911 31.0039 18.6269 31.0039Z" fill="white"/>
<path d="M18.6269 34.3432C16.4626 34.3432 14.589 33.6286 13.4562 32.519C13.3507 32.7829 13.2886 33.0576 13.2886 33.3422C13.2886 35.2001 15.6786 36.7064 18.6269 36.7064C21.575 36.7064 23.9651 35.2001 23.9651 33.3422C23.9651 33.0577 23.9029 32.7831 23.7974 32.5191C22.6646 33.6287 20.7911 34.3432 18.6269 34.3432Z" fill="white"/>
</svg>
