<svg width="50" height="50" viewBox="0 0 50 50" fill="none" xmlns="http://www.w3.org/2000/svg">
<path d="M25 50C38.8071 50 50 38.8071 50 25C50 11.1929 38.8071 0 25 0C11.1929 0 0 11.1929 0 25C0 38.8071 11.1929 50 25 50Z" fill="#33B476"/>
<path d="M36.7188 20.3657H13.2812V23.1733H36.7188V20.3657Z" fill="white"/>
<path d="M36.711 19.3892C36.6716 18.0753 35.6004 17.0205 34.2769 17.0205H15.7222C14.3988 17.0205 13.3275 18.0753 13.2881 19.3892H36.711Z" fill="white"/>
<path d="M13.2812 24.1499V30.5382C13.2812 31.8866 14.3743 32.9796 15.7227 32.9796H34.2773C35.6257 32.9796 36.7188 31.8866 36.7188 30.5382V24.1499H13.2812ZM30.7652 27.4573H31.7417V28.4338H30.7652V27.4573ZM28.3237 27.4573H29.3003V28.4338H28.3237V27.4573ZM34.1831 30.715H24.1734V29.7385H34.1831V30.715ZM34.1831 28.4338H33.2066V27.4573H34.1831V28.4338Z" fill="white"/>
</svg>
