<svg width="50" height="50" viewBox="0 0 50 50" fill="none" xmlns="http://www.w3.org/2000/svg">
<path d="M25 50C38.8071 50 50 38.8071 50 25C50 11.1929 38.8071 0 25 0C11.1929 0 0 11.1929 0 25C0 38.8071 11.1929 50 25 50Z" fill="#9233B4"/>
<path opacity="0.3" d="M37.5 21.1469H14.0625V23.9545H37.5V21.1469Z" fill="black"/>
<path opacity="0.3" d="M37.4927 20.1703C37.4533 18.8564 36.3821 17.8016 35.0586 17.8016H16.5039C15.1805 17.8016 14.1092 18.8564 14.0698 20.1703H37.4927Z" fill="black"/>
<path opacity="0.3" d="M14.0625 24.931V31.3193C14.0625 32.6677 15.1555 33.7607 16.5039 33.7607H35.0586C36.4069 33.7607 37.5 32.6677 37.5 31.3193V24.931H14.0625ZM31.5464 28.2384H32.523V29.2149H31.5464V28.2384ZM29.105 28.2384H30.0816V29.2149H29.105V28.2384ZM34.9644 31.4961H24.9546V30.5196H34.9644V31.4961V31.4961ZM34.9644 29.2149H33.9878V28.2384H34.9644V29.2149Z" fill="black"/>
<path d="M36.7188 20.3656H13.2812V23.1732H36.7188V20.3656Z" fill="white"/>
<path d="M36.7114 19.3891C36.6721 18.0752 35.6008 17.0204 34.2774 17.0204H15.7227C14.3992 17.0204 13.3279 18.0752 13.2886 19.3891H36.7114Z" fill="white"/>
<path d="M13.2812 24.1498V30.5381C13.2812 31.8864 14.3743 32.9795 15.7227 32.9795H34.2773C35.6257 32.9795 36.7188 31.8864 36.7188 30.5381V24.1498H13.2812ZM30.7652 27.4571H31.7417V28.4337H30.7652V27.4571ZM28.3237 27.4571H29.3003V28.4337H28.3237V27.4571ZM34.1831 30.7149H24.1734V29.7383H34.1831V30.7149V30.7149ZM34.1831 28.4337H33.2066V27.4571H34.1831V28.4337Z" fill="white"/>
</svg>
