<svg width="50" height="50" viewBox="0 0 50 50" fill="none" xmlns="http://www.w3.org/2000/svg">
<circle cx="25" cy="25" r="25" fill="url(#paint0_linear_270_493)"/>
<path fill-rule="evenodd" clip-rule="evenodd" d="M31.4239 15.0432C30.8394 15.1761 31.3459 14.6967 23.3303 22.7033L15.9708 30.0547L15.4805 32.5223C15.2109 33.8796 14.9947 34.9945 15.0001 34.9999C15.0055 35.0053 16.1201 34.7878 17.4768 34.5164L19.9436 34.0231L27.2951 26.6656C35.3601 18.5941 34.827 19.1596 34.959 18.5363C35.0563 18.0771 34.9801 17.6216 34.7326 17.1827C34.5606 16.8778 33.1206 15.438 32.8157 15.2661C32.3836 15.0225 31.8738 14.9408 31.4239 15.0432ZM32.1959 16.0512C32.3807 16.1069 33.8042 17.5108 33.9215 17.7529C34.0313 17.9798 34.0338 18.312 33.9274 18.5454C33.87 18.6714 33.5902 18.9771 32.9432 19.6208L32.0392 20.5201L30.7585 19.2396L29.4777 17.959L30.3772 17.0568C30.8719 16.5605 31.3245 16.1292 31.383 16.0981C31.6247 15.9698 31.8778 15.9552 32.1959 16.0512ZM29.9664 20.0513L31.2373 21.3224L25.6831 26.8759L20.1289 32.4293L18.8476 31.1487L17.5664 29.868L23.1111 24.3241C26.1607 21.2749 28.6647 18.7801 28.6756 18.7801C28.6865 18.7801 29.2674 19.3521 29.9664 20.0513ZM19.3109 33.1233C19.2924 33.1417 16.3012 33.7196 16.2887 33.7071C16.2801 33.6985 16.6802 31.5903 16.8273 30.8693L16.8703 30.6583L18.097 31.8844C18.7717 32.5587 19.318 33.1162 19.3109 33.1233Z" fill="white"/>
<defs>
<linearGradient id="paint0_linear_270_493" x1="50" y1="0" x2="0" y2="50" gradientUnits="userSpaceOnUse">
<stop offset="0.242857" stop-color="#E4765D"/>
<stop offset="0.785714" stop-color="#DB1DC9"/>
</linearGradient>
</defs>
</svg>
