<svg width="50" height="50" viewBox="0 0 50 50" fill="none" xmlns="http://www.w3.org/2000/svg">
<path d="M25 50C38.8071 50 50 38.8071 50 25C50 11.1929 38.8071 0 25 0C11.1929 0 0 11.1929 0 25C0 38.8071 11.1929 50 25 50Z" fill="#EA8E43"/>
<path opacity="0.3" d="M25.3604 26.5175H30.7748L25.3604 21.103V26.5175Z" fill="black"/>
<path opacity="0.3" d="M24.3838 20.6146H14.0625V37.1846H31.2632V27.4941H24.3838V20.6146Z" fill="black"/>
<path opacity="0.3" d="M31.5972 14.8663V20.2808H37.0116L31.5972 14.8663Z" fill="black"/>
<path opacity="0.3" d="M30.6206 21.2573V14.3779H20.2993V19.6382H25.2767L32.2398 26.6012V30.9479H37.5V21.2573H30.6206Z" fill="black"/>
<path d="M24.5791 25.7362H29.9936L24.5791 20.3218V25.7362Z" fill="white"/>
<path d="M23.6025 19.8334H13.2812V36.4033H30.482V26.7128H23.6025V19.8334Z" fill="white"/>
<path d="M30.8159 14.0851V19.4995H36.2303L30.8159 14.0851Z" fill="white"/>
<path d="M29.8394 20.4761V13.5967H19.5181V18.857H24.4955L31.4585 25.82V30.1666H36.7188V20.4761H29.8394Z" fill="white"/>
</svg>
