<svg width="50" height="50" viewBox="0 0 50 50" fill="none" xmlns="http://www.w3.org/2000/svg">
<circle cx="25" cy="25" r="25" fill="#B79CE3"/>
<path d="M30.2873 32.676H38.4073C38.7247 32.676 38.9953 32.788 39.2193 33.012C39.462 33.236 39.5833 33.5067 39.5833 33.824C39.5833 34.1413 39.462 34.4213 39.2193 34.664C38.9953 34.888 38.7247 35 38.4073 35H30.2873C29.97 35 29.6993 34.888 29.4753 34.664C29.2513 34.4213 29.1393 34.1413 29.1393 33.824C29.1393 33.5067 29.2513 33.236 29.4753 33.012C29.6993 32.788 29.97 32.676 30.2873 32.676ZM34.3473 21.728C32.8353 21.728 32.0793 22.9413 32.0793 25.368C32.0793 27.7947 32.8353 29.008 34.3473 29.008C35.878 29.008 36.6433 27.7947 36.6433 25.368C36.6433 22.9413 35.878 21.728 34.3473 21.728ZM38.3793 29.792C37.39 30.8747 36.046 31.416 34.3473 31.416C32.6487 31.416 31.3047 30.8747 30.3153 29.792C29.3447 28.7093 28.8593 27.2347 28.8593 25.368C28.8593 23.5013 29.3447 22.0267 30.3153 20.944C31.3047 19.8613 32.6487 19.32 34.3473 19.32C36.046 19.32 37.39 19.8613 38.3793 20.944C39.3687 22.0267 39.8633 23.5013 39.8633 25.368C39.8633 27.2347 39.3687 28.7093 38.3793 29.792ZM15.4193 35C14.99 35 14.6167 34.8413 14.2993 34.524C13.982 34.2067 13.8233 33.8333 13.8233 33.404V16.156C13.8233 15.7267 13.982 15.3533 14.2993 15.036C14.6167 14.7187 14.99 14.56 15.4193 14.56H16.5393C17.0247 14.56 17.4633 14.6907 17.8553 14.952C18.2473 15.2133 18.5367 15.568 18.7233 16.016L24.0153 29.008C24.0153 29.0267 24.034 29.036 24.0713 29.036C24.09 29.036 24.0993 29.0267 24.0993 29.008V16.156C24.0993 15.7267 24.2487 15.3533 24.5473 15.036C24.8647 14.7187 25.238 14.56 25.6673 14.56H26.1433C26.5727 14.56 26.946 14.7187 27.2633 15.036C27.5807 15.3533 27.7393 15.7267 27.7393 16.156V33.404C27.7393 33.8333 27.5807 34.2067 27.2633 34.524C26.946 34.8413 26.5727 35 26.1433 35H25.0233C24.538 35 24.0993 34.8693 23.7073 34.608C23.3153 34.3467 23.026 33.992 22.8393 33.544L17.5193 20.552C17.5193 20.5333 17.51 20.524 17.4913 20.524C17.4727 20.524 17.4633 20.5333 17.4633 20.552V33.404C17.4633 33.8333 17.3047 34.2067 16.9873 34.524C16.67 34.8413 16.2967 35 15.8673 35H15.4193Z" fill="#FFF7F7"/>
</svg>
