<svg width="50" height="50" viewBox="0 0 50 50" fill="none" xmlns="http://www.w3.org/2000/svg">
<circle cx="25" cy="25" r="25" fill="#B79CE3"/>
<path fill-rule="evenodd" clip-rule="evenodd" d="M26.3333 28.1667C30.9357 28.1667 34.6667 24.4357 34.6667 19.8333C34.6667 15.231 30.9357 11.5 26.3333 11.5C21.731 11.5 18 15.231 18 19.8333C18 24.4357 21.731 28.1667 26.3333 28.1667ZM26.333 26.0832C29.7848 26.0832 32.583 23.285 32.583 19.8332C32.583 16.3814 29.7848 13.5832 26.333 13.5832C22.8812 13.5832 20.083 16.3814 20.083 19.8332C20.083 23.285 22.8812 26.0832 26.333 26.0832Z" fill="white"/>
<path d="M26.0888 23.117C25.7468 23.105 25.4468 23.069 25.1888 23.009C24.9308 22.949 24.7298 22.88 24.5858 22.802L24.9368 21.785C25.0448 21.851 25.1948 21.914 25.3868 21.974C25.5848 22.034 25.8188 22.076 26.0888 22.1V20.255C25.9028 20.171 25.7168 20.078 25.5308 19.976C25.3508 19.874 25.1888 19.751 25.0448 19.607C24.9008 19.463 24.7838 19.292 24.6938 19.094C24.6098 18.89 24.5678 18.65 24.5678 18.374C24.5678 17.858 24.7028 17.459 24.9728 17.177C25.2488 16.889 25.6208 16.703 26.0888 16.619V15.8H27.0248V16.583C27.2888 16.601 27.5198 16.637 27.7178 16.691C27.9158 16.745 28.0988 16.808 28.2668 16.88L27.9428 17.879C27.8408 17.831 27.7118 17.783 27.5558 17.735C27.3998 17.687 27.2228 17.651 27.0248 17.627V19.31C27.2108 19.394 27.3968 19.49 27.5828 19.598C27.7748 19.7 27.9428 19.823 28.0868 19.967C28.2368 20.111 28.3568 20.282 28.4468 20.48C28.5428 20.672 28.5908 20.903 28.5908 21.173C28.5908 21.725 28.4498 22.157 28.1678 22.469C27.8918 22.775 27.5108 22.973 27.0248 23.063V23.9H26.0888V23.117ZM27.4208 21.308C27.4208 21.116 27.3428 20.96 27.1868 20.84C27.0368 20.714 26.8538 20.6 26.6378 20.498V22.1C26.9018 22.07 27.0968 21.986 27.2228 21.848C27.3548 21.71 27.4208 21.53 27.4208 21.308ZM25.7378 18.275C25.7378 18.455 25.8068 18.605 25.9448 18.725C26.0888 18.845 26.2658 18.956 26.4758 19.058V17.6C26.1938 17.612 25.9988 17.681 25.8908 17.807C25.7888 17.933 25.7378 18.089 25.7378 18.275Z" fill="#FFF7F7"/>
<path d="M14 36.4997C23.9663 30.901 29.1233 30.9874 39 36.4997" stroke="white" stroke-width="1.2" stroke-linecap="round"/>
<path d="M14 36.5002C23.9663 30.9015 29.1233 30.9879 39 36.5002" stroke="white" stroke-width="2" stroke-linecap="round"/>
</svg>
