<svg width="50" height="50" viewBox="0 0 50 50" fill="none" xmlns="http://www.w3.org/2000/svg">
<path d="M25 50C38.8071 50 50 38.8071 50 25C50 11.1929 38.8071 0 25 0C11.1929 0 0 11.1929 0 25C0 38.8071 11.1929 50 25 50Z" fill="#CF1E1E"/>
<path opacity="0.3" d="M33.7915 25.1001H32.1205V20.4019C32.1205 16.9062 29.2768 14.0625 25.781 14.0625C22.2856 14.0625 19.4419 16.9062 19.4419 20.4019V25.1001H17.7708C16.9783 25.1001 16.3359 25.7426 16.3359 26.5351V36.0651C16.3359 36.8576 16.9783 37.5 17.7708 37.5H33.7915C34.5839 37.5 35.2264 36.8576 35.2264 36.0651V26.5351C35.2264 25.7426 34.5839 25.1001 33.7915 25.1001ZM20.3985 20.4019C20.3985 17.4339 22.813 15.0192 25.781 15.0192C28.749 15.0192 31.1639 17.4339 31.1639 20.4019V25.1001H20.3985V20.4019ZM27.4085 34.3978H24.1538L24.8127 31.1307C24.415 30.8341 24.1538 30.3641 24.1538 29.8297C24.1538 28.9309 24.8824 28.2022 25.7811 28.2022C26.6798 28.2022 27.4085 28.9309 27.4085 29.8297C27.4085 30.3641 27.1474 30.8341 26.7495 31.1307L27.4085 34.3978Z" fill="black"/>
<path d="M33.0102 24.3189H31.3393V19.6206C31.3393 16.125 28.4955 13.2812 24.9997 13.2812C21.5044 13.2812 18.6606 16.125 18.6606 19.6206V24.3189H16.9896C16.1971 24.3189 15.5547 24.9613 15.5547 25.7538V35.2838C15.5547 36.0764 16.1971 36.7188 16.9896 36.7188H33.0102C33.8027 36.7188 34.4452 36.0764 34.4452 35.2838V25.7538C34.4452 24.9613 33.8027 24.3189 33.0102 24.3189ZM19.6173 19.6206C19.6173 16.6526 22.0318 14.2379 24.9997 14.2379C27.9677 14.2379 30.3827 16.6526 30.3827 19.6206V24.3189H19.6173V19.6206ZM26.6272 33.6166H23.3726L24.0314 30.3495C23.6337 30.0529 23.3726 29.5829 23.3726 29.0484C23.3726 28.1497 24.1011 27.421 24.9999 27.421C25.8986 27.421 26.6272 28.1497 26.6272 29.0484C26.6272 29.5829 26.3661 30.0529 25.9683 30.3495L26.6272 33.6166Z" fill="white"/>
</svg>
