<svg width="50" height="50" viewBox="0 0 50 50" fill="none" xmlns="http://www.w3.org/2000/svg">
<circle cx="25" cy="25" r="25" fill="url(#paint0_linear_270_497)"/>
<path d="M24.2273 25.1818C24.2273 26.4091 24.0057 27.4697 23.5625 28.3636C23.1193 29.2576 22.5114 29.947 21.7386 30.4318C20.9659 30.9167 20.0833 31.1591 19.0909 31.1591C18.0985 31.1591 17.2159 30.9167 16.4432 30.4318C15.6705 29.947 15.0625 29.2576 14.6193 28.3636C14.1761 27.4697 13.9545 26.4091 13.9545 25.1818C13.9545 23.9545 14.1761 22.8939 14.6193 22C15.0625 21.1061 15.6705 20.4167 16.4432 19.9318C17.2159 19.447 18.0985 19.2045 19.0909 19.2045C20.0833 19.2045 20.9659 19.447 21.7386 19.9318C22.5114 20.4167 23.1193 21.1061 23.5625 22C24.0057 22.8939 24.2273 23.9545 24.2273 25.1818ZM22.8636 25.1818C22.8636 24.1742 22.6951 23.3239 22.358 22.6307C22.0246 21.9375 21.572 21.4129 21 21.0568C20.4318 20.7008 19.7955 20.5227 19.0909 20.5227C18.3864 20.5227 17.7481 20.7008 17.1761 21.0568C16.608 21.4129 16.1553 21.9375 15.8182 22.6307C15.4848 23.3239 15.3182 24.1742 15.3182 25.1818C15.3182 26.1894 15.4848 27.0398 15.8182 27.733C16.1553 28.4261 16.608 28.9508 17.1761 29.3068C17.7481 29.6629 18.3864 29.8409 19.0909 29.8409C19.7955 29.8409 20.4318 29.6629 21 29.3068C21.572 28.9508 22.0246 28.4261 22.358 27.733C22.6951 27.0398 22.8636 26.1894 22.8636 25.1818ZM26.5966 31V19.3636H28.0057V25.1364H28.142L33.3693 19.3636H35.2102L30.3239 24.6136L35.2102 31H33.5057L29.4602 25.5909L28.0057 27.2273V31H26.5966Z" fill="white"/>
<defs>
<linearGradient id="paint0_linear_270_497" x1="50" y1="0" x2="0" y2="50" gradientUnits="userSpaceOnUse">
<stop offset="0.242857" stop-color="#70E45D"/>
<stop offset="0.785714" stop-color="#1DADDB"/>
</linearGradient>
</defs>
</svg>
