<svg width="50" height="50" viewBox="0 0 50 50" fill="none" xmlns="http://www.w3.org/2000/svg">
<circle cx="25" cy="25" r="25" fill="#B79CE3"/>
<path fill-rule="evenodd" clip-rule="evenodd" d="M25.3333 29.1667C29.9357 29.1667 33.6667 25.4357 33.6667 20.8333C33.6667 16.231 29.9357 12.5 25.3333 12.5C20.731 12.5 17 16.231 17 20.8333C17 25.4357 20.731 29.1667 25.3333 29.1667ZM25.333 27.0832C28.7848 27.0832 31.583 24.285 31.583 20.8332C31.583 17.3814 28.7848 14.5832 25.333 14.5832C21.8812 14.5832 19.083 17.3814 19.083 20.8332C19.083 24.285 21.8812 27.0832 25.333 27.0832Z" fill="white"/>
<path d="M24.3518 22.504C24.3118 22.088 24.3318 21.736 24.4118 21.448C24.4918 21.152 24.5998 20.9 24.7358 20.692C24.8798 20.476 25.0398 20.292 25.2158 20.14C25.3998 19.98 25.5678 19.828 25.7198 19.684C25.8798 19.54 26.0118 19.392 26.1158 19.24C26.2198 19.08 26.2718 18.892 26.2718 18.676C26.2718 18.396 26.1918 18.172 26.0318 18.004C25.8798 17.836 25.6038 17.752 25.2038 17.752C25.0758 17.752 24.9398 17.768 24.7958 17.8C24.6518 17.824 24.5078 17.864 24.3638 17.92C24.2198 17.968 24.0798 18.028 23.9438 18.1C23.8158 18.164 23.6998 18.232 23.5958 18.304L22.9958 17.152C23.2998 16.944 23.6478 16.772 24.0398 16.636C24.4398 16.5 24.9198 16.432 25.4798 16.432C26.2318 16.432 26.8198 16.616 27.2438 16.984C27.6678 17.344 27.8798 17.832 27.8798 18.448C27.8798 18.856 27.8238 19.196 27.7118 19.468C27.6078 19.732 27.4758 19.96 27.3158 20.152C27.1558 20.336 26.9798 20.5 26.7878 20.644C26.5958 20.788 26.4198 20.944 26.2598 21.112C26.0998 21.272 25.9638 21.46 25.8518 21.676C25.7398 21.892 25.6838 22.168 25.6838 22.504H24.3518ZM24.1118 24.208C24.1118 23.928 24.1998 23.708 24.3758 23.548C24.5518 23.38 24.7838 23.296 25.0718 23.296C25.3758 23.296 25.6158 23.38 25.7918 23.548C25.9678 23.708 26.0558 23.928 26.0558 24.208C26.0558 24.488 25.9678 24.712 25.7918 24.88C25.6158 25.048 25.3758 25.132 25.0718 25.132C24.7838 25.132 24.5518 25.048 24.3758 24.88C24.1998 24.712 24.1118 24.488 24.1118 24.208Z" fill="#FFF7F7"/>
<path d="M13 37.4997C22.9663 31.901 28.1233 31.9874 38 37.4997" stroke="white" stroke-width="1.2" stroke-linecap="round"/>
<path d="M13 37.5002C22.9663 31.9015 28.1233 31.9879 38 37.5002" stroke="white" stroke-width="2" stroke-linecap="round"/>
</svg>
